<svg width="570" height="383" viewBox="0 0 570 383" fill="none" xmlns="http://www.w3.org/2000/svg">
<rect x="0.521506" y="0.521506" width="568.957" height="381.957" fill="#FFFDFC" stroke="white" stroke-width="0.956988"/>
<path opacity="0.5" d="M103.478 37.2725C102.404 37.2725 101.457 37.0332 100.639 36.5547C99.8304 36.0656 99.1924 35.3904 98.7246 34.5291C98.2673 33.6571 98.0387 32.647 98.0387 31.4986C98.0387 30.3608 98.2673 29.3613 98.7246 28.5C99.1924 27.6281 99.8304 26.9475 100.639 26.4584C101.457 25.9693 102.404 25.7247 103.478 25.7247C104.573 25.7247 105.525 25.9693 106.333 26.4584C107.151 26.9475 107.784 27.6281 108.231 28.5C108.688 29.3613 108.917 30.3608 108.917 31.4986C108.917 32.647 108.688 33.6571 108.231 34.5291C107.784 35.3904 107.151 36.0656 106.333 36.5547C105.525 37.0332 104.573 37.2725 103.478 37.2725ZM103.478 36.0922C104.286 36.0922 104.993 35.9114 105.599 35.5499C106.216 35.1777 106.694 34.6513 107.034 33.9708C107.375 33.2797 107.545 32.4556 107.545 31.4986C107.545 30.5416 107.375 29.7228 107.034 29.0423C106.694 28.3511 106.216 27.8248 105.599 27.4632C104.993 27.1017 104.286 26.9209 103.478 26.9209C102.67 26.9209 101.962 27.1017 101.356 27.4632C100.75 27.8248 100.272 28.3511 99.9208 29.0423C99.5805 29.7228 99.4104 30.5416 99.4104 31.4986C99.4104 32.4556 99.5805 33.2797 99.9208 33.9708C100.272 34.6513 100.75 35.1777 101.356 35.5499C101.962 35.9114 102.67 36.0922 103.478 36.0922ZM113.085 37.0811L110.055 29.0742H111.458L113.867 35.7891L116.307 29.0742H117.679L114.632 37.0811H113.085ZM122.304 37.2725C121.56 37.2725 120.895 37.097 120.31 36.7461C119.725 36.3952 119.263 35.9061 118.923 35.2787C118.593 34.6513 118.428 33.9177 118.428 33.0776C118.428 32.227 118.593 31.4933 118.923 30.8765C119.252 30.2492 119.71 29.76 120.294 29.4091C120.89 29.0582 121.57 28.8828 122.336 28.8828C123.123 28.8828 123.793 29.0582 124.346 29.4091C124.899 29.76 125.319 30.2173 125.606 30.7808C125.903 31.3444 126.052 31.9664 126.052 32.647C126.052 32.7533 126.052 32.865 126.052 32.9819C126.052 33.0989 126.047 33.2318 126.036 33.3807H119.433V32.3439H124.728C124.697 31.6102 124.452 31.0413 123.995 30.6373C123.548 30.2226 122.985 30.0152 122.304 30.0152C121.857 30.0152 121.437 30.1216 121.044 30.3342C120.651 30.5363 120.332 30.834 120.087 31.2274C119.853 31.6209 119.736 32.1153 119.736 32.7108V33.1574C119.736 33.8166 119.858 34.3696 120.103 34.8162C120.348 35.2521 120.661 35.5818 121.044 35.8051C121.437 36.0284 121.857 36.14 122.304 36.14C122.868 36.14 123.33 36.0177 123.692 35.7732C124.064 35.518 124.335 35.1724 124.505 34.7364H125.829C125.691 35.2255 125.462 35.6615 125.143 36.0443C124.824 36.4165 124.425 36.7142 123.947 36.9375C123.479 37.1608 122.931 37.2725 122.304 37.2725ZM127.828 37.0811V29.0742H129.041L129.152 30.6054C129.333 30.2438 129.562 29.9355 129.838 29.6803C130.125 29.4251 130.466 29.2284 130.859 29.0901C131.252 28.9519 131.699 28.8828 132.199 28.8828V30.2864H131.736C131.396 30.2864 131.072 30.3342 130.763 30.4299C130.455 30.515 130.178 30.6585 129.934 30.8606C129.7 31.052 129.514 31.3231 129.376 31.674C129.237 32.0249 129.168 32.4556 129.168 32.966V37.0811H127.828ZM136.332 37.2725C135.684 37.2725 135.141 37.1608 134.705 36.9375C134.27 36.7036 133.945 36.4005 133.733 36.0284C133.52 35.6456 133.414 35.2362 133.414 34.8002C133.414 34.2579 133.552 33.8007 133.828 33.4285C134.115 33.0457 134.514 32.7586 135.024 32.5672C135.546 32.3652 136.152 32.2642 136.843 32.2642H138.98C138.98 31.7644 138.9 31.3497 138.741 31.0201C138.592 30.6904 138.369 30.4406 138.071 30.2704C137.773 30.1003 137.412 30.0152 136.986 30.0152C136.476 30.0152 136.035 30.1428 135.662 30.398C135.29 30.6532 135.062 31.0307 134.977 31.5305H133.605C133.669 30.9563 133.86 30.4778 134.179 30.095C134.509 29.7016 134.923 29.4038 135.423 29.2018C135.923 28.9891 136.444 28.8828 136.986 28.8828C137.731 28.8828 138.347 29.021 138.837 29.2975C139.326 29.5633 139.693 29.9408 139.937 30.4299C140.192 30.9084 140.32 31.472 140.32 32.1206V37.0811H139.124L139.044 35.6615C138.938 35.8848 138.799 36.0975 138.629 36.2995C138.47 36.4909 138.278 36.661 138.055 36.8099C137.842 36.9481 137.592 37.0598 137.305 37.1449C137.018 37.2299 136.694 37.2725 136.332 37.2725ZM136.54 36.14C136.912 36.14 137.247 36.0656 137.545 35.9167C137.853 35.7572 138.113 35.5445 138.326 35.2787C138.539 35.0129 138.698 34.7151 138.805 34.3855C138.922 34.0453 138.98 33.6997 138.98 33.3488V33.3009H136.954C136.444 33.3009 136.029 33.3647 135.71 33.4923C135.391 33.6093 135.163 33.7794 135.024 34.0027C134.886 34.2154 134.817 34.4599 134.817 34.7364C134.817 35.0235 134.881 35.2734 135.009 35.4861C135.147 35.6881 135.343 35.8476 135.599 35.9646C135.854 36.0815 136.168 36.14 136.54 36.14ZM142.377 37.0811V25.5971H143.716V37.0811H142.377ZM145.928 37.0811V25.5971H147.268V37.0811H145.928Z" fill="black"/>
<path d="M104.984 71.939C103.714 71.939 102.578 71.7217 101.575 71.2873C100.589 70.8528 99.8038 70.2179 99.219 69.3824C98.6509 68.5469 98.3585 67.536 98.3418 66.3496H101.926C101.943 66.8676 102.076 67.3355 102.327 67.7532C102.578 68.171 102.92 68.5052 103.355 68.7558C103.806 68.9897 104.34 69.1067 104.959 69.1067C105.493 69.1067 105.953 69.0232 106.337 68.8561C106.738 68.6723 107.047 68.4216 107.265 68.1041C107.499 67.7867 107.616 67.4107 107.616 66.9762C107.616 66.4583 107.482 66.0322 107.214 65.698C106.964 65.3638 106.621 65.0797 106.187 64.8458C105.752 64.6119 105.251 64.403 104.683 64.2192C104.132 64.0187 103.547 63.8182 102.929 63.6176C101.575 63.1498 100.531 62.5482 99.7955 61.813C99.077 61.0611 98.7177 60.0669 98.7177 58.8304C98.7177 57.7777 98.9684 56.8754 99.4696 56.1235C99.9876 55.3715 100.698 54.7951 101.6 54.394C102.502 53.993 103.53 53.7925 104.683 53.7925C105.869 53.7925 106.905 54.0014 107.791 54.4191C108.693 54.8201 109.403 55.4049 109.921 56.1736C110.456 56.9422 110.74 57.8445 110.774 58.8805H107.139C107.123 58.4795 107.006 58.1119 106.788 57.7777C106.588 57.4435 106.304 57.1761 105.936 56.9756C105.569 56.7584 105.134 56.6498 104.633 56.6498C104.198 56.6331 103.797 56.6999 103.43 56.8503C103.079 57.0007 102.795 57.2179 102.578 57.502C102.377 57.786 102.277 58.1453 102.277 58.5797C102.277 59.0142 102.377 59.3734 102.578 59.6575C102.795 59.9416 103.087 60.1839 103.455 60.3844C103.822 60.5849 104.249 60.777 104.733 60.9608C105.234 61.1446 105.786 61.3284 106.387 61.5123C107.256 61.813 108.058 62.1723 108.794 62.59C109.529 62.991 110.114 63.5174 110.548 64.1691C110.982 64.8207 111.2 65.6813 111.2 66.7507C111.2 67.6697 110.957 68.5219 110.473 69.3072C110.005 70.0926 109.312 70.7275 108.392 71.2121C107.473 71.6967 106.337 71.939 104.984 71.939ZM119.964 71.939C118.694 71.939 117.566 71.6716 116.58 71.1369C115.594 70.6022 114.825 69.8503 114.274 68.8811C113.739 67.912 113.472 66.8008 113.472 65.5476C113.472 64.2442 113.739 63.0997 114.274 62.1138C114.809 61.1112 115.561 60.3259 116.53 59.7578C117.516 59.1896 118.66 58.9056 119.964 58.9056C121.2 58.9056 122.286 59.1729 123.222 59.7076C124.174 60.2423 124.918 60.9776 125.453 61.9133C125.987 62.8323 126.255 63.8766 126.255 65.0463C126.255 65.2134 126.246 65.4056 126.23 65.6228C126.23 65.8233 126.213 66.0322 126.179 66.2494H115.878V64.1691H122.821C122.771 63.4004 122.478 62.7905 121.944 62.3394C121.409 61.8715 120.749 61.6376 119.964 61.6376C119.395 61.6376 118.861 61.7713 118.359 62.0386C117.875 62.2892 117.491 62.6736 117.206 63.1916C116.939 63.7095 116.805 64.3612 116.805 65.1466V65.8734C116.805 66.5418 116.931 67.1266 117.181 67.6279C117.449 68.1292 117.825 68.5135 118.309 68.7809C118.794 69.0482 119.337 69.1819 119.938 69.1819C120.54 69.1819 121.05 69.0482 121.467 68.7809C121.885 68.4968 122.211 68.1376 122.445 67.7031H125.879C125.645 68.4885 125.244 69.207 124.676 69.8586C124.124 70.4936 123.447 71.0032 122.645 71.3875C121.843 71.7551 120.949 71.939 119.964 71.939ZM134.04 71.939C132.938 71.939 131.96 71.7551 131.108 71.3875C130.256 71.0199 129.579 70.5187 129.078 69.8837C128.576 69.232 128.276 68.4968 128.175 67.678H131.559C131.643 67.9788 131.785 68.2629 131.985 68.5302C132.202 68.7809 132.478 68.9814 132.812 69.1318C133.146 69.2822 133.539 69.3573 133.99 69.3573C134.441 69.3573 134.809 69.2989 135.093 69.1819C135.377 69.0482 135.586 68.8811 135.72 68.6806C135.853 68.4634 135.92 68.2462 135.92 68.0289C135.92 67.6948 135.82 67.4441 135.619 67.277C135.419 67.0932 135.118 66.9428 134.717 66.8259C134.333 66.7089 133.873 66.5836 133.339 66.4499C132.804 66.3162 132.252 66.1658 131.684 65.9987C131.133 65.8316 130.623 65.6228 130.155 65.3721C129.688 65.1048 129.312 64.7706 129.028 64.3696C128.744 63.9685 128.601 63.4589 128.601 62.8407C128.601 62.1054 128.802 61.4454 129.203 60.8606C129.604 60.259 130.181 59.7828 130.932 59.4319C131.701 59.081 132.62 58.9056 133.69 58.9056C135.177 58.9056 136.363 59.2481 137.249 59.9332C138.151 60.6183 138.677 61.5624 138.828 62.7655H135.645C135.561 62.3644 135.344 62.0553 134.993 61.8381C134.659 61.6209 134.216 61.5123 133.664 61.5123C133.096 61.5123 132.654 61.6209 132.336 61.8381C132.035 62.0386 131.885 62.306 131.885 62.6401C131.885 62.8574 131.993 63.0579 132.211 63.2417C132.428 63.4088 132.729 63.5592 133.113 63.6928C133.497 63.8098 133.948 63.9268 134.466 64.0437C135.369 64.261 136.179 64.4949 136.898 64.7455C137.633 64.9962 138.218 65.3554 138.652 65.8233C139.087 66.2744 139.304 66.9512 139.304 67.8535C139.321 68.6221 139.112 69.3156 138.677 69.9338C138.26 70.5521 137.65 71.045 136.848 71.4126C136.062 71.7635 135.127 71.939 134.04 71.939ZM147.209 71.939C146.106 71.939 145.129 71.7551 144.276 71.3875C143.424 71.0199 142.747 70.5187 142.246 69.8837C141.745 69.232 141.444 68.4968 141.344 67.678H144.728C144.811 67.9788 144.953 68.2629 145.154 68.5302C145.371 68.7809 145.647 68.9814 145.981 69.1318C146.315 69.2822 146.708 69.3573 147.159 69.3573C147.61 69.3573 147.978 69.2989 148.262 69.1819C148.546 69.0482 148.755 68.8811 148.888 68.6806C149.022 68.4634 149.089 68.2462 149.089 68.0289C149.089 67.6948 148.988 67.4441 148.788 67.277C148.587 67.0932 148.287 66.9428 147.886 66.8259C147.501 66.7089 147.042 66.5836 146.507 66.4499C145.972 66.3162 145.421 66.1658 144.853 65.9987C144.301 65.8316 143.792 65.6228 143.324 65.3721C142.856 65.1048 142.48 64.7706 142.196 64.3696C141.912 63.9685 141.77 63.4589 141.77 62.8407C141.77 62.1054 141.97 61.4454 142.371 60.8606C142.773 60.259 143.349 59.7828 144.101 59.4319C144.87 59.081 145.789 58.9056 146.858 58.9056C148.345 58.9056 149.531 59.2481 150.417 59.9332C151.319 60.6183 151.846 61.5624 151.996 62.7655H148.813C148.729 62.3644 148.512 62.0553 148.161 61.8381C147.827 61.6209 147.384 61.5123 146.833 61.5123C146.265 61.5123 145.822 61.6209 145.505 61.8381C145.204 62.0386 145.053 62.306 145.053 62.6401C145.053 62.8574 145.162 63.0579 145.379 63.2417C145.596 63.4088 145.897 63.5592 146.282 63.6928C146.666 63.8098 147.117 63.9268 147.635 64.0437C148.537 64.261 149.348 64.4949 150.066 64.7455C150.801 64.9962 151.386 65.3554 151.821 65.8233C152.255 66.2744 152.472 66.9512 152.472 67.8535C152.489 68.6221 152.28 69.3156 151.846 69.9338C151.428 70.5521 150.818 71.045 150.016 71.4126C149.231 71.7635 148.295 71.939 147.209 71.939ZM155.314 71.6382V59.2063H158.698V71.6382H155.314ZM157.019 57.4268C156.401 57.4268 155.891 57.243 155.49 56.8754C155.106 56.5078 154.913 56.0566 154.913 55.5219C154.913 54.9538 155.106 54.4943 155.49 54.1434C155.891 53.7925 156.401 53.617 157.019 53.617C157.62 53.617 158.113 53.7925 158.498 54.1434C158.899 54.4943 159.099 54.9538 159.099 55.5219C159.099 56.0566 158.899 56.5078 158.498 56.8754C158.113 57.243 157.62 57.4268 157.019 57.4268ZM167.935 71.939C166.732 71.939 165.646 71.6632 164.677 71.1118C163.724 70.5604 162.964 69.7918 162.396 68.8059C161.844 67.8201 161.569 66.6922 161.569 65.4223C161.569 64.1356 161.844 63.0077 162.396 62.0386C162.964 61.0527 163.733 60.2841 164.702 59.7327C165.671 59.1813 166.749 58.9056 167.935 58.9056C169.155 58.9056 170.241 59.1813 171.193 59.7327C172.162 60.2841 172.931 61.0527 173.499 62.0386C174.067 63.0077 174.351 64.1356 174.351 65.4223C174.351 66.7089 174.067 67.8451 173.499 68.831C172.931 69.8001 172.162 70.5604 171.193 71.1118C170.224 71.6632 169.138 71.939 167.935 71.939ZM167.935 69.0315C168.486 69.0315 168.979 68.8978 169.414 68.6305C169.865 68.3631 170.224 67.9621 170.492 67.4274C170.759 66.876 170.893 66.2076 170.893 65.4223C170.893 64.6202 170.759 63.9518 170.492 63.4171C170.224 62.8824 169.865 62.4814 169.414 62.2141C168.979 61.9467 168.495 61.813 167.96 61.813C167.442 61.813 166.958 61.9467 166.506 62.2141C166.055 62.4814 165.688 62.8824 165.404 63.4171C165.136 63.9518 165.002 64.6202 165.002 65.4223C165.002 66.2076 165.136 66.876 165.404 67.4274C165.688 67.9621 166.047 68.3631 166.481 68.6305C166.932 68.8978 167.417 69.0315 167.935 69.0315ZM177.12 71.6382V59.2063H180.103L180.354 61.2867C180.755 60.5682 181.314 59.9917 182.033 59.5572C182.751 59.1228 183.604 58.9056 184.589 58.9056C185.642 58.9056 186.528 59.1312 187.246 59.5823C187.965 60.0168 188.508 60.6601 188.875 61.5123C189.26 62.3644 189.452 63.4171 189.452 64.6703V71.6382H186.093V64.9711C186.093 63.9351 185.884 63.1414 185.467 62.59C185.049 62.0386 184.381 61.7629 183.461 61.7629C182.893 61.7629 182.384 61.9049 181.933 62.189C181.481 62.4563 181.131 62.849 180.88 63.367C180.629 63.8683 180.504 64.4865 180.504 65.2218V71.6382H177.12Z" fill="black"/>
<circle cx="51.1299" cy="50.2168" r="27.3427" fill="#E8E6E3"/>
<g clip-path="url(#clip0_309_7152)">
<path d="M40.3354 45.6279C40.7818 45.6279 41.1435 45.266 41.1435 44.8198V41.3743L46.3481 46.5778C46.5059 46.7356 46.7127 46.8144 46.9194 46.8144C47.1263 46.8144 47.3332 46.7356 47.4909 46.5777C47.8065 46.2621 47.8065 45.7505 47.4908 45.435L42.286 40.2314H45.7322C46.1785 40.2314 46.5403 39.8696 46.5403 39.4233C46.5403 38.977 46.1786 38.6152 45.7322 38.6152H40.3354C39.889 38.6152 39.5273 38.977 39.5273 39.4233V44.8199C39.5273 45.266 39.889 45.6279 40.3354 45.6279Z" fill="#7C5832"/>
<path d="M61.9215 54.8049C61.4751 54.8049 61.1134 55.1667 61.1134 55.613V59.0585L55.7487 53.6937C55.433 53.3781 54.9214 53.3781 54.6058 53.6937C54.2902 54.0093 54.2902 54.521 54.6058 54.8364L59.9705 60.2011H56.5252C56.0788 60.2011 55.7171 60.5629 55.7171 61.0092C55.7171 61.4555 56.0788 61.8173 56.5252 61.8173H61.9216C62.368 61.8173 62.7297 61.4555 62.7297 61.0092V55.613C62.7296 55.1667 62.3678 54.8049 61.9215 54.8049Z" fill="#7C5832"/>
<path d="M46.5077 53.6937L41.1435 59.0584V55.613C41.1435 55.1667 40.7818 54.8049 40.3354 54.8049C39.889 54.8049 39.5273 55.1667 39.5273 55.613V61.0094C39.5273 61.4557 39.889 61.8175 40.3354 61.8175H45.7317C46.1779 61.8175 46.5397 61.4557 46.5397 61.0094C46.5397 60.5632 46.178 60.2014 45.7317 60.2014H42.2862L47.6506 54.8365C47.9662 54.5209 47.9662 54.0092 47.6505 53.6936C47.3351 53.3781 46.8234 53.3781 46.5077 53.6937Z" fill="#7C5832"/>
<path d="M61.9227 38.6152H56.5262C56.0798 38.6152 55.7181 38.977 55.7181 39.4233C55.7181 39.8696 56.0798 40.2314 56.5262 40.2314H59.9717L54.7679 45.4355C54.4523 45.7511 54.4523 46.2628 54.768 46.5784C54.9258 46.7361 55.1326 46.815 55.3394 46.815C55.5462 46.815 55.753 46.736 55.9109 46.5783L61.1147 41.3741V44.8198C61.1147 45.266 61.4764 45.6278 61.9228 45.6278C62.3691 45.6278 62.7308 45.266 62.7308 44.8198V39.4233C62.7307 38.9769 62.3689 38.6152 61.9227 38.6152Z" fill="#7C5832"/>
</g>
<path d="M27.769 157.39V146.877H24.2869V145.728H32.6505V146.877H29.1685V157.39H27.769ZM36.5442 157.59C35.7667 157.59 35.0669 157.412 34.4449 157.057C33.8229 156.69 33.3342 156.179 32.9788 155.524C32.6234 154.858 32.4457 154.086 32.4457 153.208C32.4457 152.309 32.6234 151.531 32.9788 150.876C33.3453 150.209 33.8396 149.699 34.4616 149.343C35.0947 148.977 35.8 148.793 36.5775 148.793C37.3772 148.793 38.0825 148.977 38.6934 149.343C39.3154 149.699 39.8041 150.209 40.1595 150.876C40.526 151.531 40.7093 152.303 40.7093 153.192C40.7093 154.08 40.526 154.858 40.1595 155.524C39.793 156.179 39.2987 156.69 38.6767 157.057C38.0547 157.412 37.3439 157.59 36.5442 157.59ZM36.5608 156.391C37.0384 156.391 37.4827 156.274 37.8937 156.041C38.3046 155.796 38.6378 155.435 38.8933 154.958C39.1488 154.48 39.2765 153.891 39.2765 153.192C39.2765 152.481 39.1488 151.892 38.8933 151.426C38.6489 150.948 38.3213 150.593 37.9103 150.359C37.5105 150.115 37.0662 149.993 36.5775 149.993C36.111 149.993 35.6667 150.115 35.2446 150.359C34.8337 150.593 34.5005 150.948 34.245 151.426C34.0006 151.892 33.8785 152.481 33.8785 153.192C33.8785 153.891 34.0006 154.48 34.245 154.958C34.5005 155.435 34.8281 155.796 35.228 156.041C35.6389 156.274 36.0832 156.391 36.5608 156.391ZM46.3701 157.59C45.5593 157.59 44.8484 157.401 44.2376 157.024C43.6267 156.635 43.1546 156.107 42.8214 155.441C42.4882 154.774 42.3216 154.019 42.3216 153.175C42.3216 152.331 42.4882 151.581 42.8214 150.926C43.1546 150.259 43.6267 149.737 44.2376 149.36C44.8596 148.982 45.576 148.793 46.3868 148.793C47.0754 148.793 47.6752 148.932 48.1861 149.21C48.7081 149.487 49.108 149.876 49.3857 150.376V145.395H50.7852V157.39H49.519L49.4023 156.007C49.2246 156.285 48.9969 156.546 48.7192 156.79C48.4416 157.024 48.1084 157.218 47.7196 157.373C47.3309 157.518 46.881 157.59 46.3701 157.59ZM46.5367 156.374C47.0921 156.374 47.5808 156.241 48.0028 155.974C48.4249 155.707 48.7526 155.341 48.9858 154.874C49.2191 154.397 49.3357 153.836 49.3357 153.192C49.3357 152.559 49.2191 152.003 48.9858 151.526C48.7526 151.048 48.4249 150.676 48.0028 150.409C47.5808 150.143 47.0921 150.01 46.5367 150.01C45.9925 150.01 45.5093 150.143 45.0872 150.409C44.6652 150.676 44.3375 151.048 44.1043 151.526C43.871 152.003 43.7544 152.559 43.7544 153.192C43.7544 153.836 43.871 154.397 44.1043 154.874C44.3375 155.341 44.6652 155.707 45.0872 155.974C45.5093 156.241 45.9925 156.374 46.5367 156.374ZM55.8492 157.59C55.1717 157.59 54.6052 157.473 54.1498 157.24C53.6944 156.996 53.3557 156.679 53.1335 156.291C52.9114 155.891 52.8003 155.458 52.8003 154.991C52.8003 154.425 52.9447 153.947 53.2335 153.558C53.5334 153.158 53.9499 152.858 54.483 152.659C55.0273 152.448 55.6659 152.342 56.399 152.342H58.6148C58.6148 151.82 58.5315 151.387 58.3649 151.042C58.2094 150.687 57.9762 150.42 57.6652 150.243C57.3653 150.065 56.9877 149.976 56.5323 149.976C55.9991 149.976 55.5382 150.109 55.1494 150.376C54.7607 150.643 54.5219 151.037 54.433 151.559H53.0002C53.0669 150.959 53.2668 150.459 53.6 150.059C53.9443 149.649 54.3775 149.338 54.8995 149.126C55.4216 148.904 55.9658 148.793 56.5323 148.793C57.3098 148.793 57.954 148.938 58.4649 149.226C58.9869 149.504 59.3757 149.898 59.6311 150.409C59.8866 150.909 60.0143 151.503 60.0143 152.192V157.39H58.7648L58.6815 155.907C58.5704 156.141 58.426 156.363 58.2483 156.574C58.0817 156.774 57.8818 156.951 57.6485 157.107C57.4153 157.251 57.1487 157.368 56.8488 157.457C56.56 157.546 56.2268 157.59 55.8492 157.59ZM56.0658 156.407C56.4545 156.407 56.8044 156.329 57.1154 156.174C57.4375 156.007 57.7096 155.785 57.9318 155.507C58.1539 155.219 58.3205 154.902 58.4316 154.558C58.5538 154.214 58.6148 153.853 58.6148 153.475V153.425H56.5156C55.9714 153.425 55.5326 153.492 55.1994 153.625C54.8662 153.747 54.6274 153.925 54.483 154.158C54.3386 154.38 54.2664 154.636 54.2664 154.924C54.2664 155.224 54.3331 155.485 54.4664 155.707C54.6108 155.93 54.8162 156.102 55.0828 156.224C55.3605 156.346 55.6881 156.407 56.0658 156.407ZM62.8516 161.055L64.9008 156.457H64.4177L61.1189 148.993H62.635L65.3673 155.408L68.2329 148.993H69.6824L64.3177 161.055H62.8516Z" fill="#807F7E"/>
<path d="M27.9189 199.39V194.958L24.1203 187.728H25.7031L28.8353 194.042H28.4187L31.5343 187.728H33.1004L29.3184 194.958V199.39H27.9189ZM36.8517 199.59C36.0631 199.59 35.3634 199.407 34.7525 199.04C34.1527 198.674 33.6807 198.163 33.3363 197.507C32.992 196.841 32.8199 196.069 32.8199 195.192C32.8199 194.303 32.9865 193.531 33.3197 192.876C33.664 192.221 34.1416 191.71 34.7525 191.343C35.3745 190.977 36.0853 190.793 36.885 190.793C37.707 190.793 38.4012 190.977 38.9676 191.343C39.5452 191.71 39.9839 192.193 40.2838 192.793C40.5948 193.381 40.7503 194.031 40.7503 194.742C40.7503 194.853 40.7503 194.97 40.7503 195.092C40.7503 195.214 40.7447 195.353 40.7336 195.508H33.8695V194.425H39.3841C39.3508 193.659 39.0953 193.059 38.6177 192.626C38.1512 192.193 37.5626 191.976 36.8517 191.976C36.3741 191.976 35.9298 192.087 35.5189 192.309C35.119 192.52 34.7969 192.837 34.5526 193.259C34.3082 193.67 34.186 194.186 34.186 194.808V195.275C34.186 195.964 34.3082 196.541 34.5526 197.008C34.808 197.474 35.1357 197.824 35.5355 198.057C35.9465 198.291 36.3852 198.407 36.8517 198.407C37.4404 198.407 37.9236 198.279 38.3012 198.024C38.6899 197.757 38.9676 197.402 39.1342 196.958H40.517C40.3838 197.458 40.1505 197.907 39.8173 198.307C39.4841 198.707 39.0676 199.024 38.5678 199.257C38.0791 199.479 37.507 199.59 36.8517 199.59ZM45.8044 199.59C45.1047 199.59 44.4938 199.473 43.9718 199.24C43.4608 199.007 43.0499 198.685 42.7389 198.274C42.439 197.852 42.2557 197.358 42.1891 196.791H43.6219C43.6774 197.08 43.7941 197.346 43.9718 197.591C44.1495 197.835 44.3883 198.035 44.6882 198.191C44.9992 198.335 45.3768 198.407 45.8211 198.407C46.2098 198.407 46.5319 198.352 46.7874 198.241C47.0429 198.118 47.2317 197.957 47.3539 197.757C47.4871 197.557 47.5538 197.341 47.5538 197.108C47.5538 196.763 47.4705 196.502 47.3039 196.325C47.1484 196.147 46.9151 196.008 46.6041 195.908C46.2931 195.797 45.9155 195.703 45.4712 195.625C45.1047 195.558 44.7437 195.469 44.3883 195.358C44.0329 195.247 43.7163 195.103 43.4386 194.925C43.161 194.736 42.9388 194.509 42.7722 194.242C42.6167 193.975 42.539 193.648 42.539 193.259C42.539 192.781 42.6611 192.359 42.9055 191.993C43.1498 191.615 43.4997 191.321 43.9551 191.11C44.4216 190.899 44.9603 190.793 45.5712 190.793C46.4709 190.793 47.1984 191.01 47.7537 191.443C48.3091 191.876 48.6367 192.504 48.7367 193.326H47.3539C47.2983 192.904 47.1151 192.576 46.8041 192.343C46.5042 192.098 46.0877 191.976 45.5545 191.976C45.0325 191.976 44.6326 192.082 44.355 192.293C44.0884 192.504 43.9551 192.781 43.9551 193.126C43.9551 193.348 44.0273 193.548 44.1717 193.726C44.3272 193.892 44.5493 194.037 44.8381 194.159C45.138 194.281 45.5045 194.381 45.9377 194.459C46.4931 194.559 46.9984 194.692 47.4538 194.858C47.9092 195.025 48.2757 195.275 48.5534 195.608C48.8422 195.93 48.9866 196.391 48.9866 196.991C48.9866 197.513 48.8533 197.968 48.5867 198.357C48.3313 198.746 47.9648 199.051 47.4871 199.274C47.0095 199.485 46.4486 199.59 45.8044 199.59ZM53.9263 199.39C53.4265 199.39 52.9933 199.312 52.6268 199.157C52.2603 199.001 51.977 198.74 51.7771 198.374C51.5883 197.996 51.4939 197.491 51.4939 196.858V192.176H50.0278V190.993H51.4939L51.6771 188.961H52.8934V190.993H55.3258V192.176H52.8934V196.858C52.8934 197.38 52.9989 197.735 53.2099 197.924C53.421 198.102 53.793 198.191 54.3262 198.191H55.2258V199.39H53.9263ZM60.606 199.59C59.8174 199.59 59.1177 199.407 58.5068 199.04C57.907 198.674 57.435 198.163 57.0907 197.507C56.7463 196.841 56.5742 196.069 56.5742 195.192C56.5742 194.303 56.7408 193.531 57.074 192.876C57.4183 192.221 57.8959 191.71 58.5068 191.343C59.1288 190.977 59.8397 190.793 60.6394 190.793C61.4613 190.793 62.1555 190.977 62.7219 191.343C63.2995 191.71 63.7382 192.193 64.0381 192.793C64.3491 193.381 64.5046 194.031 64.5046 194.742C64.5046 194.853 64.5046 194.97 64.5046 195.092C64.5046 195.214 64.4991 195.353 64.4879 195.508H57.6238V194.425H63.1384C63.1051 193.659 62.8497 193.059 62.3721 192.626C61.9056 192.193 61.3169 191.976 60.606 191.976C60.1284 191.976 59.6842 192.087 59.2732 192.309C58.8733 192.52 58.5512 192.837 58.3069 193.259C58.0625 193.67 57.9403 194.186 57.9403 194.808V195.275C57.9403 195.964 58.0625 196.541 58.3069 197.008C58.5623 197.474 58.89 197.824 59.2899 198.057C59.7008 198.291 60.1395 198.407 60.606 198.407C61.1947 198.407 61.6779 198.279 62.0555 198.024C62.4443 197.757 62.7219 197.402 62.8885 196.958H64.2714C64.1381 197.458 63.9048 197.907 63.5716 198.307C63.2384 198.707 62.8219 199.024 62.3221 199.257C61.8334 199.479 61.2614 199.59 60.606 199.59ZM66.3932 199.39V190.993H67.6594L67.7594 192.593C67.9482 192.215 68.187 191.893 68.4758 191.626C68.7757 191.36 69.1311 191.154 69.5421 191.01C69.9642 190.865 70.4418 190.793 70.9749 190.793V192.259H70.4584C70.103 192.259 69.7642 192.309 69.4421 192.409C69.12 192.498 68.8312 192.648 68.5758 192.859C68.3314 193.07 68.137 193.359 67.9927 193.726C67.8594 194.081 67.7927 194.525 67.7927 195.058V199.39H66.3932ZM75.9491 199.59C75.1383 199.59 74.4274 199.401 73.8166 199.024C73.2057 198.635 72.7336 198.107 72.4004 197.441C72.0672 196.774 71.9006 196.019 71.9006 195.175C71.9006 194.331 72.0672 193.581 72.4004 192.926C72.7336 192.259 73.2057 191.737 73.8166 191.36C74.4386 190.982 75.155 190.793 75.9658 190.793C76.6544 190.793 77.2542 190.932 77.7651 191.21C78.2871 191.487 78.687 191.876 78.9647 192.376V187.395H80.3642V199.39H79.098L78.9813 198.007C78.8036 198.285 78.5759 198.546 78.2983 198.79C78.0206 199.024 77.6874 199.218 77.2986 199.373C76.9099 199.518 76.46 199.59 75.9491 199.59ZM76.1157 198.374C76.6711 198.374 77.1598 198.241 77.5818 197.974C78.0039 197.707 78.3316 197.341 78.5648 196.874C78.7981 196.397 78.9147 195.836 78.9147 195.192C78.9147 194.559 78.7981 194.003 78.5648 193.526C78.3316 193.048 78.0039 192.676 77.5818 192.409C77.1598 192.143 76.6711 192.01 76.1157 192.01C75.5715 192.01 75.0883 192.143 74.6662 192.409C74.2442 192.676 73.9165 193.048 73.6833 193.526C73.45 194.003 73.3334 194.559 73.3334 195.192C73.3334 195.836 73.45 196.397 73.6833 196.874C73.9165 197.341 74.2442 197.707 74.6662 197.974C75.0883 198.241 75.5715 198.374 76.1157 198.374ZM85.4282 199.59C84.7507 199.59 84.1842 199.473 83.7288 199.24C83.2734 198.996 82.9347 198.679 82.7125 198.291C82.4904 197.891 82.3793 197.458 82.3793 196.991C82.3793 196.425 82.5237 195.947 82.8125 195.558C83.1124 195.158 83.5289 194.858 84.062 194.659C84.6063 194.448 85.2449 194.342 85.978 194.342H88.1938C88.1938 193.82 88.1105 193.387 87.9439 193.042C87.7884 192.687 87.5552 192.42 87.2442 192.243C86.9443 192.065 86.5667 191.976 86.1113 191.976C85.5781 191.976 85.1172 192.109 84.7284 192.376C84.3397 192.643 84.1009 193.037 84.012 193.559H82.5792C82.6459 192.959 82.8458 192.459 83.179 192.059C83.5233 191.649 83.9565 191.338 84.4785 191.126C85.0006 190.904 85.5448 190.793 86.1113 190.793C86.8888 190.793 87.533 190.938 88.0439 191.226C88.5659 191.504 88.9547 191.898 89.2101 192.409C89.4656 192.909 89.5933 193.503 89.5933 194.192V199.39H88.3438L88.2605 197.907C88.1494 198.141 88.005 198.363 87.8273 198.574C87.6607 198.774 87.4608 198.951 87.2275 199.107C86.9943 199.251 86.7277 199.368 86.4278 199.457C86.139 199.546 85.8058 199.59 85.4282 199.59ZM85.6448 198.407C86.0335 198.407 86.3834 198.329 86.6944 198.174C87.0165 198.007 87.2886 197.785 87.5108 197.507C87.7329 197.219 87.8995 196.902 88.0106 196.558C88.1328 196.214 88.1938 195.853 88.1938 195.475V195.425H86.0946C85.5504 195.425 85.1116 195.492 84.7784 195.625C84.4452 195.747 84.2064 195.925 84.062 196.158C83.9176 196.38 83.8454 196.636 83.8454 196.924C83.8454 197.224 83.9121 197.485 84.0454 197.707C84.1898 197.93 84.3952 198.102 84.6618 198.224C84.9395 198.346 85.2671 198.407 85.6448 198.407ZM92.4306 203.055L94.4798 198.457H93.9967L90.6979 190.993H92.214L94.9463 197.408L97.8119 190.993H99.2614L93.8967 203.055H92.4306Z" fill="#807F7E"/>
<path d="M25.0367 241.39V229.728H26.4361V240.274H31.8675V241.39H25.0367ZM36.4715 241.59C35.794 241.59 35.2275 241.473 34.7721 241.24C34.3168 240.996 33.978 240.679 33.7559 240.291C33.5337 239.891 33.4226 239.458 33.4226 238.991C33.4226 238.425 33.567 237.947 33.8558 237.558C34.1557 237.158 34.5722 236.858 35.1054 236.659C35.6496 236.448 36.2883 236.342 37.0213 236.342H39.2372C39.2372 235.82 39.1539 235.387 38.9873 235.042C38.8318 234.687 38.5985 234.42 38.2875 234.243C37.9876 234.065 37.61 233.976 37.1546 233.976C36.6215 233.976 36.1605 234.109 35.7718 234.376C35.383 234.643 35.1442 235.037 35.0554 235.559H33.6226C33.6892 234.959 33.8891 234.459 34.2223 234.059C34.5667 233.649 34.9998 233.338 35.5219 233.126C36.0439 232.904 36.5881 232.793 37.1546 232.793C37.9321 232.793 38.5763 232.938 39.0872 233.226C39.6093 233.504 39.998 233.898 40.2535 234.409C40.5089 234.909 40.6367 235.503 40.6367 236.192V241.39H39.3871L39.3038 239.907C39.1927 240.141 39.0484 240.363 38.8706 240.574C38.704 240.774 38.5041 240.951 38.2709 241.107C38.0376 241.251 37.771 241.368 37.4712 241.457C37.1824 241.546 36.8492 241.59 36.4715 241.59ZM36.6881 240.407C37.0769 240.407 37.4267 240.329 37.7377 240.174C38.0598 240.007 38.332 239.785 38.5541 239.507C38.7762 239.219 38.9428 238.902 39.0539 238.558C39.1761 238.214 39.2372 237.853 39.2372 237.475V237.425H37.1379C36.5937 237.425 36.155 237.492 35.8218 237.625C35.4886 237.747 35.2497 237.925 35.1054 238.158C34.961 238.38 34.8888 238.636 34.8888 238.924C34.8888 239.224 34.9554 239.485 35.0887 239.707C35.2331 239.93 35.4386 240.102 35.7051 240.224C35.9828 240.346 36.3105 240.407 36.6881 240.407ZM45.9671 241.59C45.2674 241.59 44.6565 241.473 44.1345 241.24C43.6235 241.007 43.2126 240.685 42.9016 240.274C42.6017 239.852 42.4184 239.358 42.3518 238.791H43.7846C43.8401 239.08 43.9568 239.346 44.1345 239.591C44.3122 239.835 44.551 240.035 44.8509 240.191C45.1619 240.335 45.5395 240.407 45.9838 240.407C46.3725 240.407 46.6946 240.352 46.9501 240.241C47.2056 240.118 47.3944 239.957 47.5166 239.757C47.6498 239.557 47.7165 239.341 47.7165 239.108C47.7165 238.763 47.6332 238.502 47.4666 238.325C47.3111 238.147 47.0778 238.008 46.7668 237.908C46.4558 237.797 46.0782 237.703 45.6339 237.625C45.2674 237.558 44.9064 237.469 44.551 237.358C44.1956 237.247 43.879 237.103 43.6013 236.925C43.3237 236.736 43.1015 236.509 42.9349 236.242C42.7794 235.975 42.7017 235.648 42.7017 235.259C42.7017 234.781 42.8238 234.359 43.0682 233.993C43.3126 233.615 43.6624 233.321 44.1178 233.11C44.5843 232.899 45.123 232.793 45.7339 232.793C46.6336 232.793 47.3611 233.01 47.9164 233.443C48.4718 233.876 48.7994 234.504 48.8994 235.326H47.5166C47.461 234.904 47.2778 234.576 46.9668 234.343C46.6669 234.098 46.2504 233.976 45.7172 233.976C45.1952 233.976 44.7953 234.082 44.5177 234.293C44.2511 234.504 44.1178 234.781 44.1178 235.126C44.1178 235.348 44.19 235.548 44.3344 235.726C44.4899 235.892 44.712 236.037 45.0008 236.159C45.3007 236.281 45.6672 236.381 46.1004 236.459C46.6558 236.559 47.1611 236.692 47.6165 236.858C48.0719 237.025 48.4384 237.275 48.7161 237.608C49.0049 237.93 49.1493 238.391 49.1493 238.991C49.1493 239.513 49.016 239.968 48.7494 240.357C48.494 240.746 48.1275 241.051 47.6499 241.274C47.1722 241.485 46.6113 241.59 45.9671 241.59ZM54.089 241.39C53.5892 241.39 53.156 241.312 52.7895 241.157C52.423 241.001 52.1397 240.74 51.9398 240.374C51.751 239.996 51.6566 239.491 51.6566 238.858V234.176H50.1905V232.993H51.6566L51.8398 230.961H53.0561V232.993H55.4885V234.176H53.0561V238.858C53.0561 239.38 53.1616 239.735 53.3726 239.924C53.5837 240.102 53.9557 240.191 54.4889 240.191H55.3885V241.39H54.089ZM63.4394 241.39L60.9736 232.993H62.3731L64.2891 240.074H64.0392L66.1217 232.993H67.7045L69.8204 240.057L69.5538 240.074L71.4531 232.993H72.8693L70.4201 241.39H68.9873L66.7881 233.993H67.0714L64.8722 241.39H63.4394ZM77.8198 241.59C77.0312 241.59 76.3314 241.407 75.7206 241.04C75.1208 240.674 74.6487 240.163 74.3044 239.507C73.9601 238.841 73.7879 238.069 73.7879 237.192C73.7879 236.303 73.9545 235.531 74.2877 234.876C74.6321 234.221 75.1097 233.71 75.7206 233.343C76.3425 232.977 77.0534 232.793 77.8531 232.793C78.675 232.793 79.3692 232.977 79.9357 233.343C80.5132 233.71 80.952 234.193 81.2519 234.793C81.5629 235.381 81.7184 236.031 81.7184 236.742C81.7184 236.853 81.7184 236.97 81.7184 237.092C81.7184 237.214 81.7128 237.353 81.7017 237.508H74.8375V236.425H80.3522C80.3189 235.659 80.0634 235.059 79.5858 234.626C79.1193 234.193 78.5306 233.976 77.8198 233.976C77.3422 233.976 76.8979 234.087 76.4869 234.309C76.0871 234.52 75.765 234.837 75.5206 235.259C75.2763 235.67 75.1541 236.186 75.1541 236.808V237.275C75.1541 237.964 75.2763 238.541 75.5206 239.008C75.7761 239.474 76.1037 239.824 76.5036 240.057C76.9146 240.291 77.3533 240.407 77.8198 240.407C78.4085 240.407 78.8916 240.279 79.2692 240.024C79.658 239.757 79.9357 239.402 80.1023 238.958H81.4851C81.3518 239.458 81.1186 239.907 80.7854 240.307C80.4521 240.707 80.0356 241.024 79.5358 241.257C79.0471 241.479 78.4751 241.59 77.8198 241.59ZM87.289 241.59C86.5004 241.59 85.8006 241.407 85.1897 241.04C84.59 240.674 84.1179 240.163 83.7736 239.507C83.4293 238.841 83.2571 238.069 83.2571 237.192C83.2571 236.303 83.4237 235.531 83.7569 234.876C84.1012 234.221 84.5788 233.71 85.1897 233.343C85.8117 232.977 86.5226 232.793 87.3223 232.793C88.1442 232.793 88.8384 232.977 89.4049 233.343C89.9824 233.71 90.4212 234.193 90.721 234.793C91.032 235.381 91.1875 236.031 91.1875 236.742C91.1875 236.853 91.1875 236.97 91.1875 237.092C91.1875 237.214 91.182 237.353 91.1709 237.508H84.3067V236.425H89.8214C89.7881 235.659 89.5326 235.059 89.055 234.626C88.5885 234.193 87.9998 233.976 87.289 233.976C86.8114 233.976 86.3671 234.087 85.9561 234.309C85.5563 234.52 85.2342 234.837 84.9898 235.259C84.7455 235.67 84.6233 236.186 84.6233 236.808V237.275C84.6233 237.964 84.7455 238.541 84.9898 239.008C85.2453 239.474 85.5729 239.824 85.9728 240.057C86.3837 240.291 86.8225 240.407 87.289 240.407C87.8776 240.407 88.3608 240.279 88.7384 240.024C89.1272 239.757 89.4049 239.402 89.5715 238.958H90.9543C90.821 239.458 90.5878 239.907 90.2545 240.307C89.9213 240.707 89.5048 241.024 89.005 241.257C88.5163 241.479 87.9443 241.59 87.289 241.59ZM98.2409 241.39L94.2424 236.792L97.8911 232.993H99.6071L95.4253 237.292L95.442 236.292L100.024 241.39H98.2409ZM93.0762 241.39V229.395H94.4757V241.39H93.0762Z" fill="#807F7E"/>
<path d="M25.0033 283.39V271.728H26.6694V282.074H32.0008V283.39H25.0033ZM36.6509 283.59C35.9622 283.59 35.3902 283.473 34.9348 283.24C34.4795 283.007 34.1407 282.696 33.9186 282.307C33.6964 281.907 33.5853 281.48 33.5853 281.024C33.5853 280.469 33.7297 279.997 34.0185 279.608C34.3073 279.208 34.7183 278.903 35.2514 278.692C35.7845 278.481 36.4232 278.375 37.1674 278.375H39.3499C39.3499 277.887 39.2777 277.481 39.1333 277.159C38.9889 276.837 38.7723 276.598 38.4835 276.443C38.2059 276.276 37.8504 276.193 37.4173 276.193C36.9175 276.193 36.4898 276.315 36.1344 276.559C35.779 276.793 35.5568 277.142 35.468 277.609H33.8019C33.8686 277.02 34.0685 276.52 34.4017 276.109C34.746 275.687 35.1848 275.365 35.7179 275.143C36.251 274.91 36.8175 274.793 37.4173 274.793C38.2059 274.793 38.8667 274.932 39.3999 275.21C39.933 275.487 40.3329 275.882 40.5994 276.393C40.8771 276.893 41.016 277.492 41.016 278.192V283.39H39.5665L39.4332 281.974C39.311 282.196 39.1666 282.407 39 282.607C38.8334 282.807 38.6335 282.979 38.4002 283.124C38.1781 283.268 37.9171 283.379 37.6172 283.457C37.3284 283.546 37.0063 283.59 36.6509 283.59ZM36.9674 282.241C37.3229 282.241 37.645 282.168 37.9337 282.024C38.2225 281.88 38.4669 281.685 38.6668 281.441C38.8778 281.185 39.0333 280.902 39.1333 280.591C39.2444 280.269 39.3055 279.941 39.3166 279.608V279.558H37.334C36.8564 279.558 36.4676 279.619 36.1677 279.741C35.8789 279.853 35.6679 280.008 35.5346 280.208C35.4013 280.408 35.3347 280.641 35.3347 280.908C35.3347 281.185 35.3958 281.424 35.518 281.624C35.6513 281.813 35.8401 281.963 36.0844 282.074C36.3288 282.185 36.6231 282.241 36.9674 282.241ZM46.3913 283.59C45.6805 283.59 45.0585 283.473 44.5253 283.24C43.9922 283.007 43.5701 282.679 43.2591 282.257C42.9481 281.835 42.7593 281.341 42.6927 280.774H44.3921C44.4476 281.041 44.5531 281.285 44.7086 281.507C44.8752 281.73 45.0974 281.907 45.375 282.041C45.6638 282.174 46.0026 282.241 46.3913 282.241C46.7579 282.241 47.0577 282.191 47.291 282.091C47.5354 281.98 47.7131 281.835 47.8241 281.657C47.9352 281.469 47.9907 281.269 47.9907 281.058C47.9907 280.747 47.913 280.513 47.7575 280.358C47.6131 280.191 47.391 280.064 47.0911 279.975C46.8023 279.875 46.4524 279.786 46.0415 279.708C45.6527 279.642 45.2751 279.553 44.9085 279.442C44.5531 279.319 44.231 279.169 43.9422 278.992C43.6645 278.814 43.4424 278.592 43.2758 278.325C43.1092 278.048 43.0259 277.709 43.0259 277.309C43.0259 276.831 43.1536 276.404 43.4091 276.026C43.6645 275.637 44.0255 275.338 44.492 275.126C44.9696 274.904 45.5305 274.793 46.1747 274.793C47.1077 274.793 47.8575 275.015 48.4239 275.46C48.9904 275.904 49.3236 276.532 49.4235 277.342H47.8075C47.763 276.965 47.5964 276.676 47.3077 276.476C47.0189 276.265 46.6357 276.159 46.1581 276.159C45.6805 276.159 45.3139 276.254 45.0585 276.443C44.803 276.632 44.6753 276.881 44.6753 277.192C44.6753 277.392 44.7475 277.57 44.8919 277.726C45.0363 277.881 45.2473 278.014 45.525 278.125C45.8138 278.225 46.1636 278.32 46.5746 278.409C47.1633 278.52 47.6908 278.659 48.1573 278.825C48.6238 278.992 48.9959 279.236 49.2736 279.558C49.5513 279.88 49.6901 280.341 49.6901 280.941C49.7012 281.463 49.5679 281.924 49.2903 282.324C49.0237 282.724 48.6405 283.035 48.1407 283.257C47.652 283.479 47.0689 283.59 46.3913 283.59ZM54.7755 283.39C54.2424 283.39 53.7814 283.307 53.3927 283.14C53.0039 282.974 52.704 282.696 52.493 282.307C52.282 281.918 52.1764 281.391 52.1764 280.724V276.409H50.727V274.993H52.1764L52.3764 272.894H53.8425V274.993H56.225V276.409H53.8425V280.741C53.8425 281.219 53.9425 281.546 54.1424 281.724C54.3423 281.891 54.6866 281.974 55.1753 281.974H56.1417V283.39H54.7755ZM62.3249 283.39V274.993H63.8244L63.941 276.176C64.2076 275.743 64.563 275.404 65.0073 275.16C65.4516 274.915 65.9514 274.793 66.5067 274.793C66.9288 274.793 67.312 274.854 67.6563 274.977C68.0006 275.088 68.3061 275.26 68.5726 275.493C68.8392 275.726 69.0558 276.015 69.2224 276.359C69.5223 275.871 69.9222 275.487 70.422 275.21C70.9329 274.932 71.4716 274.793 72.038 274.793C72.7156 274.793 73.2987 274.932 73.7874 275.21C74.2761 275.476 74.6482 275.882 74.9037 276.426C75.1591 276.959 75.2869 277.626 75.2869 278.425V283.39H73.6375V278.592C73.6375 277.814 73.4764 277.226 73.1543 276.826C72.8433 276.426 72.3824 276.226 71.7715 276.226C71.3605 276.226 70.994 276.332 70.6719 276.543C70.3498 276.754 70.0943 277.059 69.9055 277.459C69.7278 277.859 69.6389 278.348 69.6389 278.925V283.39H67.9729V278.592C67.9729 277.814 67.8118 277.226 67.4897 276.826C67.1787 276.426 66.7178 276.226 66.1069 276.226C65.7181 276.226 65.3627 276.332 65.0406 276.543C64.7185 276.754 64.463 277.059 64.2742 277.459C64.0854 277.859 63.991 278.348 63.991 278.925V283.39H62.3249ZM81.2718 283.59C80.4832 283.59 79.7723 283.407 79.1392 283.04C78.5172 282.674 78.023 282.163 77.6564 281.507C77.301 280.841 77.1233 280.075 77.1233 279.208C77.1233 278.32 77.3066 277.548 77.6731 276.893C78.0396 276.226 78.5394 275.71 79.1725 275.343C79.8056 274.977 80.5165 274.793 81.3051 274.793C82.1048 274.793 82.8156 274.977 83.4376 275.343C84.0596 275.71 84.5483 276.221 84.9038 276.876C85.2703 277.531 85.4536 278.303 85.4536 279.192C85.4536 280.08 85.2703 280.852 84.9038 281.507C84.5483 282.163 84.0541 282.674 83.421 283.04C82.7879 283.407 82.0715 283.59 81.2718 283.59ZM81.2718 282.157C81.7272 282.157 82.1381 282.046 82.5047 281.824C82.8823 281.602 83.1822 281.274 83.4043 280.841C83.6376 280.397 83.7542 279.847 83.7542 279.192C83.7542 278.536 83.6431 277.992 83.421 277.559C83.1988 277.115 82.899 276.781 82.5213 276.559C82.1548 276.337 81.7494 276.226 81.3051 276.226C80.8608 276.226 80.4498 276.337 80.0722 276.559C79.6946 276.781 79.3891 277.115 79.1559 277.559C78.9337 277.992 78.8227 278.536 78.8227 279.192C78.8227 279.847 78.9337 280.397 79.1559 280.841C79.3891 281.274 79.689 281.602 80.0555 281.824C80.4332 282.046 80.8386 282.157 81.2718 282.157ZM87.4134 283.39V274.993H88.9129L89.0128 276.426C89.2794 275.926 89.657 275.532 90.1457 275.243C90.6344 274.943 91.1953 274.793 91.8284 274.793C92.4949 274.793 93.0669 274.927 93.5445 275.193C94.0221 275.46 94.3942 275.865 94.6607 276.409C94.9273 276.942 95.0606 277.614 95.0606 278.425V283.39H93.3945V278.592C93.3945 277.814 93.2224 277.226 92.8781 276.826C92.5337 276.426 92.0339 276.226 91.3786 276.226C90.9454 276.226 90.5567 276.332 90.2124 276.543C89.8681 276.743 89.5904 277.042 89.3793 277.442C89.1794 277.842 89.0795 278.331 89.0795 278.908V283.39H87.4134ZM100.657 283.39C100.124 283.39 99.663 283.307 99.2743 283.14C98.8855 282.974 98.5857 282.696 98.3746 282.307C98.1636 281.918 98.0581 281.391 98.0581 280.724V276.409H96.6086V274.993H98.0581L98.258 272.894H99.7241V274.993H102.107V276.409H99.7241V280.741C99.7241 281.219 99.8241 281.546 100.024 281.724C100.224 281.891 100.568 281.974 101.057 281.974H102.023V283.39H100.657ZM103.944 283.39V271.395H105.61V276.359C105.888 275.871 106.271 275.487 106.759 275.21C107.259 274.932 107.809 274.793 108.409 274.793C109.075 274.793 109.647 274.932 110.125 275.21C110.602 275.476 110.969 275.882 111.224 276.426C111.48 276.959 111.608 277.631 111.608 278.442V283.39H109.958V278.609C109.958 277.831 109.792 277.242 109.458 276.843C109.125 276.432 108.631 276.226 107.976 276.226C107.531 276.226 107.132 276.332 106.776 276.543C106.421 276.754 106.137 277.065 105.926 277.476C105.715 277.875 105.61 278.364 105.61 278.942V283.39H103.944Z" fill="#281909"/>
<path d="M30.1015 325.59C28.9685 325.59 27.9856 325.34 27.1525 324.84C26.3306 324.329 25.6975 323.624 25.2532 322.724C24.809 321.814 24.5868 320.759 24.5868 319.559C24.5868 318.359 24.809 317.31 25.2532 316.41C25.6975 315.499 26.3306 314.794 27.1525 314.294C27.9856 313.783 28.9685 313.528 30.1015 313.528C31.4343 313.528 32.5172 313.844 33.3503 314.477C34.1833 315.111 34.7164 316.005 34.9497 317.16H33.4003C33.2225 316.438 32.8616 315.86 32.3173 315.427C31.7731 314.983 31.0345 314.761 30.1015 314.761C29.2684 314.761 28.5465 314.955 27.9356 315.344C27.3247 315.721 26.8527 316.271 26.5194 316.993C26.1862 317.704 26.0196 318.559 26.0196 319.559C26.0196 320.559 26.1862 321.419 26.5194 322.141C26.8527 322.852 27.3247 323.402 27.9356 323.791C28.5465 324.168 29.2684 324.357 30.1015 324.357C31.0345 324.357 31.7731 324.146 32.3173 323.724C32.8616 323.291 33.2225 322.719 33.4003 322.008H34.9497C34.7164 323.13 34.1833 324.007 33.3503 324.64C32.5172 325.274 31.4343 325.59 30.1015 325.59ZM39.9445 325.59C39.3003 325.59 38.7338 325.462 38.2451 325.207C37.7675 324.951 37.3954 324.557 37.1288 324.024C36.8734 323.491 36.7456 322.824 36.7456 322.025V316.993H38.1451V321.875C38.1451 322.708 38.3284 323.335 38.6949 323.757C39.0615 324.179 39.5779 324.391 40.2444 324.391C40.7109 324.391 41.1329 324.279 41.5106 324.057C41.8882 323.824 42.1825 323.496 42.3936 323.074C42.6157 322.641 42.7268 322.114 42.7268 321.492V316.993H44.1263V325.39H42.8601L42.7768 323.924C42.5213 324.446 42.1437 324.857 41.6438 325.157C41.144 325.446 40.5776 325.59 39.9445 325.59ZM49.6116 325.59C48.9119 325.59 48.301 325.473 47.779 325.24C47.268 325.007 46.8571 324.685 46.5461 324.274C46.2462 323.852 46.0629 323.358 45.9963 322.791H47.4291C47.4846 323.08 47.6013 323.346 47.779 323.591C47.9567 323.835 48.1955 324.035 48.4954 324.191C48.8064 324.335 49.184 324.407 49.6283 324.407C50.017 324.407 50.3391 324.352 50.5946 324.241C50.8501 324.118 51.0389 323.957 51.1611 323.757C51.2943 323.557 51.361 323.341 51.361 323.108C51.361 322.763 51.2777 322.502 51.1111 322.325C50.9556 322.147 50.7223 322.008 50.4113 321.908C50.1003 321.797 49.7227 321.703 49.2784 321.625C48.9119 321.558 48.5509 321.469 48.1955 321.358C47.8401 321.247 47.5235 321.103 47.2458 320.925C46.9682 320.736 46.746 320.509 46.5794 320.242C46.4239 319.975 46.3462 319.648 46.3462 319.259C46.3462 318.781 46.4683 318.359 46.7127 317.993C46.957 317.615 47.3069 317.321 47.7623 317.11C48.2288 316.899 48.7675 316.793 49.3784 316.793C50.2781 316.793 51.0056 317.01 51.5609 317.443C52.1163 317.876 52.4439 318.504 52.5439 319.326H51.1611C51.1055 318.904 50.9223 318.576 50.6113 318.343C50.3114 318.098 49.8949 317.976 49.3617 317.976C48.8397 317.976 48.4398 318.082 48.1622 318.293C47.8956 318.504 47.7623 318.781 47.7623 319.126C47.7623 319.348 47.8345 319.548 47.9789 319.726C48.1344 319.892 48.3565 320.037 48.6453 320.159C48.9452 320.281 49.3117 320.381 49.7449 320.459C50.3003 320.559 50.8056 320.692 51.261 320.858C51.7164 321.025 52.0829 321.275 52.3606 321.608C52.6494 321.93 52.7938 322.391 52.7938 322.991C52.7938 323.513 52.6605 323.968 52.3939 324.357C52.1385 324.746 51.7719 325.051 51.2943 325.274C50.8167 325.485 50.2558 325.59 49.6116 325.59ZM57.7335 325.39C57.2337 325.39 56.8005 325.312 56.434 325.157C56.0675 325.001 55.7842 324.74 55.5843 324.374C55.3955 323.996 55.3011 323.491 55.3011 322.858V318.176H53.835V316.993H55.3011L55.4843 314.961H56.7006V316.993H59.133V318.176H56.7006V322.858C56.7006 323.38 56.8061 323.735 57.0171 323.924C57.2282 324.102 57.6002 324.191 58.1334 324.191H59.033V325.39H57.7335ZM64.4799 325.59C63.7024 325.59 63.0026 325.412 62.3806 325.057C61.7587 324.69 61.2699 324.179 60.9145 323.524C60.5591 322.858 60.3814 322.086 60.3814 321.208C60.3814 320.309 60.5591 319.531 60.9145 318.876C61.2811 318.209 61.7753 317.699 62.3973 317.343C63.0304 316.977 63.7357 316.793 64.5132 316.793C65.3129 316.793 66.0182 316.977 66.6291 317.343C67.2511 317.699 67.7398 318.209 68.0952 318.876C68.4618 319.531 68.645 320.303 68.645 321.192C68.645 322.08 68.4618 322.858 68.0952 323.524C67.7287 324.179 67.2344 324.69 66.6124 325.057C65.9904 325.412 65.2796 325.59 64.4799 325.59ZM64.4965 324.391C64.9741 324.391 65.4184 324.274 65.8294 324.041C66.2403 323.796 66.5736 323.435 66.829 322.958C67.0845 322.48 67.2122 321.891 67.2122 321.192C67.2122 320.481 67.0845 319.892 66.829 319.426C66.5847 318.948 66.257 318.593 65.846 318.359C65.4462 318.115 65.0019 317.993 64.5132 317.993C64.0467 317.993 63.6024 318.115 63.1804 318.359C62.7694 318.593 62.4362 318.948 62.1807 319.426C61.9364 319.892 61.8142 320.481 61.8142 321.192C61.8142 321.891 61.9364 322.48 62.1807 322.958C62.4362 323.435 62.7638 323.796 63.1637 324.041C63.5747 324.274 64.0189 324.391 64.4965 324.391ZM70.6072 325.39V316.993H71.8734L71.9567 318.193C72.2233 317.76 72.5787 317.421 73.023 317.176C73.4784 316.921 73.9726 316.793 74.5058 316.793C74.9389 316.793 75.3277 316.854 75.672 316.977C76.0274 317.088 76.3384 317.265 76.605 317.51C76.8716 317.743 77.0881 318.043 77.2548 318.409C77.5435 317.898 77.9378 317.504 78.4377 317.226C78.9486 316.938 79.4928 316.793 80.0704 316.793C80.7146 316.793 81.2755 316.927 81.7531 317.193C82.2418 317.449 82.6139 317.843 82.8694 318.376C83.1359 318.898 83.2692 319.564 83.2692 320.375V325.39H81.8864V320.525C81.8864 319.681 81.7142 319.048 81.3699 318.626C81.0256 318.204 80.5424 317.993 79.9204 317.993C79.4873 317.993 79.0985 318.109 78.7542 318.343C78.4099 318.565 78.1378 318.893 77.9378 319.326C77.7379 319.759 77.6379 320.292 77.6379 320.925V325.39H76.2385V320.525C76.2385 319.681 76.0663 319.048 75.722 318.626C75.3777 318.204 74.889 317.993 74.2559 317.993C73.8338 317.993 73.4506 318.109 73.1063 318.343C72.7731 318.565 72.5065 318.893 72.3066 319.326C72.1066 319.759 72.0067 320.292 72.0067 320.925V325.39H70.6072Z" fill="#807F7E"/>
<path d="M188.705 256.006C176.633 256.006 179.791 276.668 165.305 276.668V330.39H568.517L568.517 103.352C561.272 103.352 561.684 117.844 547.195 117.844C532.709 117.844 509.719 151.135 490.404 151.135C471.088 151.135 459.867 194.432 442.966 194.432C426.065 194.432 426.065 179.969 406.749 179.969C387.434 179.969 380.19 211.789 368.118 214.681C356.046 217.574 351.217 188.647 343.973 188.647C336.73 188.647 329.487 240.716 317.415 240.716C305.342 240.716 300.513 214.681 290.856 214.681C281.198 214.681 273.955 255.179 264.297 255.179C254.639 255.179 252.225 240.716 242.567 240.716C232.909 240.716 230.495 272.536 213.594 272.536C196.692 272.536 200.778 256.006 188.705 256.006Z" fill="url(#paint0_linear_309_7152)" fill-opacity="0.2"/>
<path d="M165.305 273.717C179.791 273.717 177.377 253.997 189.449 253.997C201.521 253.997 196.692 270.697 213.594 270.697C230.495 270.697 232.909 240.08 242.567 240.08C252.225 240.08 254.639 253.997 264.297 253.997C273.955 253.997 281.198 215.03 290.856 215.03C300.513 215.03 305.342 240.08 317.415 240.08C329.487 240.08 336.73 189.98 343.974 189.98C351.217 189.98 356.046 217.813 368.118 215.03C380.19 212.246 387.434 181.629 406.749 181.629C426.065 181.629 426.065 195.546 442.966 195.546C459.867 195.546 469.525 151.013 488.84 151.013C508.156 151.013 532.81 117.864 547.295 117.864C561.784 117.864 561.273 103.696 568.517 103.696" stroke="#7C5832" stroke-width="2.02111"/>
<path d="M225.5 313.261C225.5 312.723 225.914 312.268 226.493 312.268H233.779C234.317 312.268 234.773 312.723 234.773 313.261V320.547C234.773 321.127 234.317 321.541 233.779 321.541C233.2 321.541 232.786 321.127 232.786 320.547V315.662L224.837 323.569C224.465 323.983 223.844 323.983 223.471 323.569L218.876 318.974L212.584 325.225C212.211 325.639 211.59 325.639 211.218 325.225C210.804 324.853 210.804 324.232 211.218 323.818L218.172 316.863C218.545 316.49 219.166 316.49 219.538 316.863L224.175 321.5L231.378 314.255H226.493C225.914 314.255 225.5 313.841 225.5 313.261Z" fill="#00812B"/>
<path d="M250.595 315.155L245.534 326.794H243.968L245.847 322.722L242.517 315.155H244.166L246.573 320.958H246.606L248.946 315.155H250.595ZM254.89 323.497C253.703 323.497 252.725 323.09 251.955 322.277C251.186 321.463 250.801 320.436 250.801 319.194C250.801 317.963 251.175 316.941 251.922 316.128C252.67 315.303 253.626 314.891 254.791 314.891C255.989 314.891 256.939 315.281 257.643 316.062C258.357 316.831 258.714 317.914 258.714 319.309L258.698 319.474H252.351C252.373 320.266 252.637 320.903 253.142 321.387C253.648 321.87 254.252 322.112 254.956 322.112C255.923 322.112 256.681 321.628 257.231 320.661L258.582 321.321C258.22 322.002 257.714 322.535 257.066 322.92C256.428 323.304 255.703 323.497 254.89 323.497ZM252.466 318.221H257.099C257.055 317.661 256.824 317.199 256.406 316.837C256 316.463 255.45 316.276 254.758 316.276C254.186 316.276 253.692 316.452 253.274 316.804C252.868 317.155 252.598 317.628 252.466 318.221ZM266.364 320.991C266.364 321.694 266.056 322.288 265.441 322.771C264.825 323.255 264.05 323.497 263.116 323.497C262.303 323.497 261.589 323.288 260.973 322.87C260.358 322.442 259.918 321.881 259.654 321.189L261.006 320.612C261.204 321.095 261.49 321.474 261.863 321.749C262.248 322.013 262.666 322.145 263.116 322.145C263.6 322.145 264.001 322.04 264.32 321.832C264.649 321.623 264.814 321.376 264.814 321.09C264.814 320.573 264.419 320.194 263.627 319.952L262.243 319.606C260.671 319.21 259.885 318.452 259.885 317.331C259.885 316.595 260.182 316.007 260.775 315.567C261.38 315.117 262.149 314.891 263.083 314.891C263.798 314.891 264.441 315.062 265.012 315.402C265.595 315.743 266.001 316.199 266.232 316.771L264.88 317.331C264.726 316.99 264.474 316.727 264.122 316.54C263.781 316.342 263.396 316.243 262.968 316.243C262.572 316.243 262.215 316.342 261.896 316.54C261.589 316.738 261.435 316.979 261.435 317.265C261.435 317.727 261.869 318.056 262.737 318.254L263.957 318.568C265.562 318.963 266.364 319.771 266.364 320.991ZM270.802 323.365C270.142 323.365 269.593 323.161 269.153 322.755C268.725 322.348 268.505 321.782 268.494 321.057V316.54H267.076V315.155H268.494V312.682H270.01V315.155H271.989V316.54H270.01V320.562C270.01 321.101 270.115 321.469 270.324 321.667C270.532 321.854 270.769 321.947 271.032 321.947C271.153 321.947 271.269 321.936 271.379 321.914C271.5 321.881 271.609 321.843 271.708 321.799L272.186 323.15C271.791 323.293 271.329 323.365 270.802 323.365ZM276.978 323.497C275.791 323.497 274.813 323.09 274.043 322.277C273.274 321.463 272.889 320.436 272.889 319.194C272.889 317.963 273.263 316.941 274.01 316.128C274.758 315.303 275.714 314.891 276.879 314.891C278.077 314.891 279.027 315.281 279.731 316.062C280.445 316.831 280.802 317.914 280.802 319.309L280.786 319.474H274.439C274.461 320.266 274.725 320.903 275.23 321.387C275.736 321.87 276.34 322.112 277.044 322.112C278.011 322.112 278.769 321.628 279.319 320.661L280.67 321.321C280.308 322.002 279.802 322.535 279.154 322.92C278.516 323.304 277.791 323.497 276.978 323.497ZM274.554 318.221H279.187C279.143 317.661 278.912 317.199 278.494 316.837C278.088 316.463 277.538 316.276 276.846 316.276C276.274 316.276 275.78 316.452 275.362 316.804C274.955 317.155 274.686 317.628 274.554 318.221ZM283.706 323.233H282.189V315.155H283.64V316.474H283.706C283.86 316.045 284.173 315.683 284.646 315.386C285.129 315.078 285.602 314.924 286.063 314.924C286.503 314.924 286.877 314.99 287.184 315.122L286.723 316.589C286.536 316.512 286.239 316.474 285.833 316.474C285.261 316.474 284.761 316.705 284.332 317.166C283.915 317.628 283.706 318.166 283.706 318.782V323.233ZM291.306 322.112C292.053 322.112 292.663 321.843 293.136 321.304C293.63 320.766 293.878 320.062 293.878 319.194C293.878 318.348 293.63 317.65 293.136 317.1C292.652 316.551 292.042 316.276 291.306 316.276C290.581 316.276 289.971 316.551 289.476 317.1C288.981 317.65 288.734 318.348 288.734 319.194C288.734 320.051 288.981 320.749 289.476 321.288C289.971 321.837 290.581 322.112 291.306 322.112ZM291.059 323.497C290.004 323.497 289.097 323.079 288.338 322.244C287.591 321.398 287.217 320.381 287.217 319.194C287.217 318.007 287.591 316.99 288.338 316.144C289.097 315.309 290.004 314.891 291.059 314.891C291.652 314.891 292.191 315.018 292.674 315.27C293.169 315.523 293.548 315.858 293.812 316.276H293.878L293.812 315.155V311.429H295.328V323.233H293.878V322.112H293.812C293.548 322.53 293.169 322.865 292.674 323.118C292.191 323.37 291.652 323.497 291.059 323.497ZM298.202 320.76C298.202 321.156 298.366 321.485 298.696 321.749C299.037 322.013 299.432 322.145 299.883 322.145C300.521 322.145 301.087 321.909 301.581 321.436C302.087 320.963 302.339 320.408 302.339 319.771C301.867 319.397 301.207 319.21 300.361 319.21C299.746 319.21 299.229 319.359 298.812 319.656C298.405 319.952 298.202 320.32 298.202 320.76ZM300.163 314.891C301.284 314.891 302.169 315.193 302.818 315.798C303.466 316.391 303.79 317.21 303.79 318.254V323.233H302.339V322.112H302.273C301.647 323.035 300.812 323.497 299.768 323.497C298.877 323.497 298.13 323.233 297.526 322.705C296.932 322.178 296.635 321.518 296.635 320.727C296.635 319.892 296.949 319.227 297.575 318.732C298.213 318.238 299.059 317.991 300.114 317.991C301.015 317.991 301.757 318.155 302.339 318.485V318.139C302.339 317.611 302.131 317.166 301.713 316.804C301.295 316.43 300.806 316.243 300.246 316.243C299.4 316.243 298.729 316.6 298.235 317.315L296.899 316.474C297.636 315.419 298.724 314.891 300.163 314.891ZM312.56 315.155L307.499 326.794H305.933L307.813 322.722L304.483 315.155H306.131L308.538 320.958H308.571L310.912 315.155H312.56Z" fill="black"/>
<path d="M168.826 322.817V319.767H165.776V318.382H168.826V315.349H170.211V318.382H173.252V319.767H170.211V322.817H168.826ZM177.46 325.018V315.044L175.226 316.404V314.483L177.46 313.148H179.216V325.018H177.46ZM182.016 325.009L182.025 323.476L187.193 318.844C187.61 318.476 187.893 318.124 188.042 317.789C188.196 317.453 188.273 317.118 188.273 316.783C188.273 316.36 188.179 315.981 187.992 315.646C187.806 315.305 187.547 315.036 187.218 314.838C186.888 314.64 186.509 314.541 186.08 314.541C185.64 314.541 185.248 314.645 184.901 314.854C184.561 315.058 184.294 315.33 184.102 315.67C183.909 316.011 183.816 316.379 183.822 316.775H182.058C182.058 316.006 182.231 315.332 182.577 314.755C182.929 314.173 183.409 313.72 184.019 313.395C184.629 313.066 185.327 312.901 186.113 312.901C186.86 312.901 187.531 313.071 188.124 313.412C188.718 313.747 189.185 314.209 189.525 314.797C189.872 315.385 190.045 316.055 190.045 316.808C190.045 317.352 189.973 317.813 189.83 318.193C189.688 318.572 189.473 318.923 189.188 319.248C188.902 319.572 188.545 319.924 188.116 320.303L184.127 323.864L183.937 323.369H190.045V325.009H182.016ZM193.505 325.018L192.351 323.864L203.075 313.148L204.229 314.31L193.505 325.018ZM201.756 325.265C201.212 325.265 200.715 325.133 200.264 324.869C199.819 324.6 199.462 324.243 199.193 323.798C198.924 323.347 198.789 322.847 198.789 322.297C198.789 321.759 198.926 321.264 199.201 320.814C199.476 320.363 199.838 320.003 200.289 319.734C200.74 319.465 201.229 319.33 201.756 319.33C202.3 319.33 202.798 319.465 203.248 319.734C203.699 319.998 204.056 320.355 204.32 320.806C204.589 321.251 204.724 321.748 204.724 322.297C204.724 322.847 204.589 323.347 204.32 323.798C204.056 324.243 203.699 324.6 203.248 324.869C202.798 325.133 202.3 325.265 201.756 325.265ZM201.756 323.773C202.026 323.773 202.27 323.707 202.49 323.575C202.715 323.438 202.894 323.256 203.026 323.031C203.163 322.806 203.232 322.561 203.232 322.297C203.232 322.034 203.163 321.789 203.026 321.564C202.894 321.339 202.715 321.16 202.49 321.028C202.27 320.891 202.026 320.822 201.756 320.822C201.493 320.822 201.248 320.891 201.023 321.028C200.803 321.16 200.624 321.339 200.487 321.564C200.355 321.789 200.289 322.034 200.289 322.297C200.289 322.561 200.355 322.806 200.487 323.031C200.624 323.256 200.803 323.438 201.023 323.575C201.248 323.707 201.493 323.773 201.756 323.773ZM194.824 318.836C194.28 318.836 193.783 318.704 193.332 318.44C192.882 318.171 192.522 317.813 192.252 317.368C191.989 316.918 191.857 316.418 191.857 315.868C191.857 315.33 191.994 314.835 192.269 314.384C192.544 313.934 192.906 313.574 193.357 313.305C193.808 313.035 194.297 312.901 194.824 312.901C195.368 312.901 195.863 313.035 196.308 313.305C196.758 313.568 197.118 313.926 197.388 314.376C197.657 314.821 197.792 315.319 197.792 315.868C197.792 316.418 197.657 316.918 197.388 317.368C197.118 317.813 196.758 318.171 196.308 318.44C195.863 318.704 195.368 318.836 194.824 318.836ZM194.824 317.344C195.088 317.344 195.332 317.278 195.558 317.146C195.783 317.008 195.962 316.827 196.094 316.602C196.231 316.376 196.3 316.132 196.3 315.868C196.3 315.604 196.231 315.36 196.094 315.135C195.962 314.909 195.783 314.731 195.558 314.599C195.332 314.461 195.088 314.393 194.824 314.393C194.56 314.393 194.316 314.461 194.091 314.599C193.871 314.731 193.692 314.909 193.555 315.135C193.417 315.36 193.349 315.604 193.349 315.868C193.349 316.132 193.417 316.376 193.555 316.602C193.692 316.827 193.871 317.008 194.091 317.146C194.31 317.278 194.555 317.344 194.824 317.344Z" fill="#00812B"/>
<g filter="url(#filter0_d_309_7152)">
<circle cx="344.679" cy="189.294" r="7.57918" fill="white"/>
</g>
<circle cx="344.678" cy="189.293" r="3.53695" fill="#7C5832"/>
<g clip-path="url(#clip1_309_7152)">
<path fill-rule="evenodd" clip-rule="evenodd" d="M309.644 134.206C306.326 134.206 303.637 136.895 303.637 140.213V164.243C303.637 167.561 306.326 170.251 309.644 170.251H341.051L343.592 176.165C344.009 177.134 345.383 177.134 345.8 176.165L348.341 170.251H378.706C382.024 170.251 384.713 167.561 384.713 164.243V140.213C384.713 136.895 382.024 134.206 378.706 134.206H309.644Z" fill="#7C5832"/>
<path d="M318.753 149.814C318.284 149.814 317.845 149.719 317.439 149.528C317.037 149.334 316.692 149.067 316.404 148.728C316.116 148.385 315.911 147.992 315.788 147.547L317.065 147.205C317.136 147.475 317.259 147.71 317.433 147.909C317.611 148.108 317.818 148.263 318.055 148.373C318.292 148.479 318.537 148.532 318.791 148.532C319.126 148.532 319.428 148.451 319.699 148.29C319.974 148.129 320.19 147.914 320.347 147.643C320.508 147.372 320.588 147.073 320.588 146.747C320.588 146.413 320.506 146.11 320.341 145.84C320.18 145.569 319.962 145.355 319.687 145.198C319.416 145.037 319.117 144.957 318.791 144.957C318.419 144.957 318.104 145.031 317.845 145.179C317.587 145.327 317.386 145.499 317.242 145.693L316.087 145.287L316.366 140.481H321.299V141.732H317.045L317.585 141.23L317.363 144.83L317.103 144.494C317.344 144.252 317.632 144.068 317.966 143.941C318.3 143.814 318.633 143.751 318.963 143.751C319.53 143.751 320.036 143.882 320.48 144.144C320.929 144.407 321.282 144.764 321.541 145.217C321.799 145.666 321.928 146.176 321.928 146.747C321.928 147.315 321.782 147.831 321.49 148.297C321.198 148.758 320.81 149.126 320.328 149.401C319.845 149.676 319.321 149.814 318.753 149.814ZM326.417 140.297C327.005 140.297 327.536 140.439 328.01 140.722C328.484 141.002 328.861 141.387 329.14 141.878C329.42 142.369 329.559 142.93 329.559 143.56V146.468C329.559 147.137 329.42 147.723 329.14 148.227C328.865 148.726 328.48 149.116 327.985 149.395C327.494 149.674 326.927 149.814 326.283 149.814C325.801 149.814 325.348 149.723 324.925 149.541C324.501 149.359 324.133 149.088 323.82 148.728L324.798 147.82C324.971 148.045 325.189 148.225 325.452 148.36C325.714 148.496 325.991 148.563 326.283 148.563C326.66 148.563 326.992 148.472 327.28 148.29C327.572 148.108 327.799 147.871 327.96 147.579C328.12 147.287 328.201 146.974 328.201 146.64V144.963L328.467 145.255C328.205 145.598 327.879 145.869 327.49 146.068C327.1 146.267 326.683 146.366 326.239 146.366C325.668 146.366 325.16 146.235 324.715 145.973C324.271 145.71 323.919 145.353 323.661 144.9C323.403 144.447 323.274 143.935 323.274 143.363C323.274 142.792 323.418 142.276 323.706 141.814C323.994 141.353 324.374 140.985 324.849 140.71C325.323 140.434 325.845 140.297 326.417 140.297ZM326.417 141.579C326.087 141.579 325.784 141.66 325.509 141.821C325.238 141.977 325.022 142.191 324.861 142.462C324.7 142.733 324.62 143.033 324.62 143.363C324.62 143.694 324.7 143.996 324.861 144.271C325.022 144.542 325.238 144.758 325.509 144.919C325.78 145.08 326.08 145.16 326.41 145.16C326.741 145.16 327.041 145.08 327.312 144.919C327.583 144.758 327.799 144.542 327.96 144.271C328.12 143.996 328.201 143.694 328.201 143.363C328.201 143.037 328.12 142.739 327.96 142.468C327.803 142.197 327.589 141.981 327.318 141.821C327.047 141.66 326.747 141.579 326.417 141.579ZM336.02 149.624L333.049 140.481H334.426L336.96 148.284L339.525 140.481H340.902L337.931 149.624H336.02ZM341.739 141.643V140.354H343.066V141.643H341.739ZM341.739 149.624V142.767H343.066V149.624H341.739ZM347.595 149.808C346.761 149.808 346.081 149.624 345.557 149.255C345.032 148.887 344.71 148.369 344.592 147.7L345.95 147.49C346.035 147.846 346.23 148.127 346.534 148.335C346.843 148.538 347.226 148.639 347.684 148.639C348.098 148.639 348.422 148.555 348.655 148.385C348.892 148.216 349.01 147.983 349.01 147.687C349.01 147.514 348.968 147.374 348.883 147.268C348.803 147.158 348.632 147.054 348.369 146.957C348.107 146.86 347.707 146.739 347.169 146.595C346.581 146.443 346.113 146.28 345.766 146.106C345.423 145.928 345.178 145.723 345.03 145.49C344.886 145.253 344.814 144.968 344.814 144.633C344.814 144.218 344.924 143.857 345.144 143.548C345.364 143.239 345.673 142.999 346.071 142.83C346.473 142.661 346.943 142.576 347.48 142.576C348.005 142.576 348.473 142.659 348.883 142.824C349.294 142.989 349.626 143.224 349.88 143.528C350.134 143.829 350.287 144.182 350.337 144.589L348.979 144.836C348.932 144.506 348.778 144.246 348.515 144.055C348.253 143.865 347.912 143.761 347.493 143.744C347.091 143.727 346.765 143.795 346.515 143.948C346.266 144.096 346.141 144.301 346.141 144.563C346.141 144.716 346.187 144.845 346.28 144.951C346.378 145.056 346.564 145.158 346.839 145.255C347.114 145.353 347.521 145.469 348.058 145.605C348.634 145.753 349.091 145.918 349.429 146.1C349.768 146.278 350.009 146.491 350.153 146.741C350.301 146.987 350.375 147.285 350.375 147.636C350.375 148.314 350.128 148.845 349.633 149.23C349.142 149.615 348.462 149.808 347.595 149.808ZM355.704 149.624C355.272 149.708 354.849 149.744 354.434 149.731C354.019 149.719 353.649 149.638 353.323 149.49C352.997 149.342 352.752 149.109 352.587 148.792C352.438 148.508 352.358 148.22 352.345 147.928C352.337 147.632 352.333 147.298 352.333 146.925V140.862H353.666V146.862C353.666 147.137 353.668 147.376 353.672 147.579C353.681 147.782 353.725 147.954 353.806 148.093C353.958 148.356 354.199 148.506 354.529 148.544C354.864 148.578 355.255 148.563 355.704 148.5V149.624ZM351.018 143.833V142.767H355.704V143.833H351.018ZM359.817 149.814C359.132 149.814 358.537 149.66 358.033 149.351C357.53 149.042 357.14 148.616 356.865 148.074C356.594 147.528 356.459 146.9 356.459 146.189C356.459 145.473 356.598 144.845 356.878 144.303C357.157 143.757 357.549 143.334 358.052 143.033C358.556 142.729 359.144 142.576 359.817 142.576C360.503 142.576 361.098 142.731 361.601 143.04C362.105 143.349 362.495 143.774 362.77 144.316C363.045 144.858 363.182 145.482 363.182 146.189C363.182 146.904 363.043 147.535 362.763 148.081C362.488 148.623 362.099 149.048 361.595 149.357C361.091 149.662 360.499 149.814 359.817 149.814ZM359.817 148.563C360.473 148.563 360.962 148.343 361.284 147.903C361.61 147.459 361.773 146.887 361.773 146.189C361.773 145.473 361.608 144.902 361.278 144.474C360.952 144.043 360.465 143.827 359.817 143.827C359.373 143.827 359.007 143.928 358.719 144.132C358.431 144.331 358.217 144.608 358.078 144.963C357.938 145.315 357.868 145.723 357.868 146.189C357.868 146.908 358.033 147.484 358.363 147.916C358.694 148.347 359.178 148.563 359.817 148.563ZM364.578 149.624V142.767H365.758V144.43L365.593 144.214C365.678 143.994 365.788 143.793 365.924 143.611C366.059 143.425 366.216 143.272 366.393 143.154C366.567 143.027 366.759 142.93 366.971 142.862C367.187 142.79 367.407 142.748 367.631 142.735C367.856 142.718 368.072 142.729 368.279 142.767V144.011C368.055 143.952 367.805 143.935 367.53 143.96C367.259 143.986 367.009 144.072 366.781 144.221C366.565 144.36 366.393 144.53 366.266 144.728C366.144 144.927 366.055 145.15 366 145.395C365.945 145.636 365.917 145.892 365.917 146.163V149.624H364.578ZM371.862 149.808C371.028 149.808 370.349 149.624 369.824 149.255C369.299 148.887 368.978 148.369 368.859 147.7L370.218 147.49C370.302 147.846 370.497 148.127 370.802 148.335C371.111 148.538 371.494 148.639 371.951 148.639C372.366 148.639 372.69 148.555 372.922 148.385C373.16 148.216 373.278 147.983 373.278 147.687C373.278 147.514 373.236 147.374 373.151 147.268C373.071 147.158 372.899 147.054 372.637 146.957C372.374 146.86 371.974 146.739 371.437 146.595C370.848 146.443 370.381 146.28 370.034 146.106C369.691 145.928 369.445 145.723 369.297 145.49C369.153 145.253 369.081 144.968 369.081 144.633C369.081 144.218 369.191 143.857 369.411 143.548C369.632 143.239 369.941 142.999 370.338 142.83C370.741 142.661 371.21 142.576 371.748 142.576C372.273 142.576 372.74 142.659 373.151 142.824C373.562 142.989 373.894 143.224 374.148 143.528C374.402 143.829 374.554 144.182 374.605 144.589L373.246 144.836C373.2 144.506 373.045 144.246 372.783 144.055C372.52 143.865 372.18 143.761 371.761 143.744C371.359 143.727 371.033 143.795 370.783 143.948C370.533 144.096 370.408 144.301 370.408 144.563C370.408 144.716 370.455 144.845 370.548 144.951C370.645 145.056 370.832 145.158 371.107 145.255C371.382 145.353 371.788 145.469 372.326 145.605C372.901 145.753 373.358 145.918 373.697 146.1C374.036 146.278 374.277 146.491 374.421 146.741C374.569 146.987 374.643 147.285 374.643 147.636C374.643 148.314 374.395 148.845 373.9 149.23C373.409 149.615 372.73 149.808 371.862 149.808Z" fill="white"/>
<path d="M315.431 162.751C314.952 162.751 314.549 162.624 314.222 162.37C313.897 162.115 313.673 161.772 313.549 161.342L314.49 161.119C314.532 161.322 314.64 161.497 314.813 161.642C314.989 161.785 315.184 161.856 315.399 161.856C315.542 161.856 315.69 161.819 315.845 161.747C316 161.674 316.115 161.556 316.19 161.392C316.242 161.283 316.272 161.159 316.281 161.019C316.291 160.877 316.295 160.712 316.295 160.524V156.072H317.259V160.524C317.259 160.718 317.257 160.89 317.254 161.042C317.254 161.193 317.239 161.336 317.209 161.469C317.182 161.603 317.127 161.741 317.045 161.883C316.872 162.183 316.645 162.403 316.363 162.542C316.081 162.682 315.771 162.751 315.431 162.751ZM320.012 162.756C319.649 162.756 319.344 162.689 319.098 162.556C318.853 162.42 318.666 162.241 318.539 162.019C318.415 161.795 318.353 161.55 318.353 161.283C318.353 161.034 318.397 160.816 318.485 160.628C318.573 160.44 318.703 160.281 318.876 160.151C319.048 160.017 319.261 159.91 319.512 159.828C319.73 159.764 319.977 159.708 320.253 159.66C320.529 159.611 320.819 159.566 321.122 159.523C321.428 159.481 321.731 159.438 322.031 159.396L321.686 159.587C321.692 159.202 321.61 158.917 321.44 158.732C321.273 158.544 320.985 158.45 320.576 158.45C320.318 158.45 320.082 158.511 319.867 158.632C319.652 158.75 319.502 158.947 319.417 159.223L318.53 158.95C318.651 158.529 318.882 158.194 319.221 157.946C319.564 157.697 320.018 157.573 320.585 157.573C321.025 157.573 321.407 157.649 321.731 157.8C322.058 157.949 322.298 158.185 322.449 158.509C322.528 158.67 322.577 158.84 322.595 159.019C322.613 159.197 322.622 159.39 322.622 159.596V162.62H321.781V161.497L321.945 161.642C321.742 162.018 321.482 162.298 321.167 162.483C320.855 162.665 320.47 162.756 320.012 162.756ZM320.181 161.979C320.45 161.979 320.682 161.932 320.876 161.838C321.07 161.741 321.226 161.618 321.345 161.469C321.463 161.321 321.54 161.166 321.576 161.006C321.628 160.86 321.657 160.696 321.663 160.514C321.672 160.333 321.676 160.187 321.676 160.078L321.986 160.192C321.686 160.237 321.413 160.278 321.167 160.314C320.922 160.351 320.699 160.387 320.499 160.424C320.302 160.457 320.126 160.498 319.971 160.546C319.841 160.592 319.724 160.646 319.621 160.71C319.521 160.774 319.441 160.851 319.38 160.942C319.323 161.033 319.294 161.143 319.294 161.274C319.294 161.401 319.326 161.519 319.389 161.628C319.453 161.735 319.55 161.819 319.68 161.883C319.811 161.947 319.977 161.979 320.181 161.979ZM327.249 162.62V160.205C327.249 160.014 327.233 159.819 327.199 159.619C327.169 159.416 327.108 159.228 327.017 159.055C326.929 158.882 326.804 158.743 326.64 158.637C326.479 158.531 326.269 158.478 326.008 158.478C325.838 158.478 325.678 158.506 325.526 158.564C325.374 158.618 325.241 158.708 325.126 158.832C325.014 158.956 324.924 159.12 324.858 159.323C324.794 159.526 324.762 159.773 324.762 160.064L324.171 159.842C324.171 159.396 324.254 159.003 324.421 158.664C324.588 158.321 324.827 158.055 325.14 157.864C325.452 157.673 325.829 157.577 326.272 157.577C326.611 157.577 326.896 157.632 327.126 157.741C327.357 157.85 327.543 157.994 327.686 158.173C327.831 158.349 327.942 158.541 328.018 158.75C328.093 158.96 328.145 159.164 328.172 159.364C328.199 159.564 328.213 159.74 328.213 159.892V162.62H327.249ZM323.798 162.62V157.709H324.648V159.128H324.762V162.62H323.798ZM331.127 160.133V159.369H333.855V160.133H331.127ZM336.675 162.615L336.68 161.769L339.53 159.214C339.761 159.011 339.917 158.817 339.999 158.632C340.084 158.447 340.126 158.262 340.126 158.077C340.126 157.844 340.074 157.635 339.971 157.45C339.868 157.262 339.726 157.114 339.544 157.004C339.362 156.895 339.153 156.841 338.917 156.841C338.674 156.841 338.457 156.898 338.266 157.013C338.078 157.126 337.931 157.276 337.825 157.464C337.719 157.652 337.668 157.855 337.671 158.073H336.698C336.698 157.649 336.793 157.277 336.984 156.959C337.178 156.638 337.443 156.388 337.78 156.209C338.116 156.027 338.501 155.936 338.935 155.936C339.347 155.936 339.717 156.03 340.044 156.218C340.372 156.403 340.629 156.657 340.817 156.982C341.008 157.306 341.104 157.676 341.104 158.091C341.104 158.391 341.064 158.646 340.985 158.855C340.907 159.064 340.788 159.258 340.631 159.437C340.473 159.616 340.276 159.81 340.04 160.019L337.839 161.983L337.734 161.71H341.104V162.615H336.675ZM344.135 162.756C343.799 162.756 343.485 162.688 343.194 162.551C342.906 162.412 342.659 162.221 342.453 161.979C342.247 161.733 342.1 161.451 342.012 161.133L342.926 160.887C342.978 161.081 343.065 161.25 343.19 161.392C343.317 161.534 343.466 161.645 343.635 161.724C343.805 161.8 343.981 161.838 344.163 161.838C344.402 161.838 344.619 161.78 344.813 161.665C345.01 161.55 345.165 161.395 345.277 161.201C345.392 161.007 345.449 160.793 345.449 160.56C345.449 160.32 345.39 160.104 345.272 159.91C345.157 159.716 345.001 159.563 344.804 159.451C344.61 159.335 344.396 159.278 344.163 159.278C343.896 159.278 343.67 159.331 343.485 159.437C343.3 159.543 343.156 159.666 343.053 159.805L342.226 159.514L342.426 156.072H345.959V156.968H342.912L343.299 156.609L343.14 159.187L342.953 158.946C343.126 158.773 343.332 158.641 343.572 158.55C343.811 158.459 344.049 158.414 344.286 158.414C344.692 158.414 345.054 158.508 345.372 158.696C345.693 158.884 345.947 159.14 346.131 159.464C346.316 159.785 346.409 160.151 346.409 160.56C346.409 160.966 346.304 161.336 346.095 161.669C345.886 162 345.609 162.263 345.263 162.46C344.918 162.658 344.542 162.756 344.135 162.756ZM349.225 160.133V159.369H351.953V160.133H349.225ZM354.773 162.615L354.778 161.769L357.629 159.214C357.859 159.011 358.015 158.817 358.097 158.632C358.182 158.447 358.224 158.262 358.224 158.077C358.224 157.844 358.173 157.635 358.07 157.45C357.967 157.262 357.824 157.114 357.642 157.004C357.46 156.895 357.251 156.841 357.015 156.841C356.772 156.841 356.556 156.898 356.365 157.013C356.177 157.126 356.03 157.276 355.924 157.464C355.817 157.652 355.766 157.855 355.769 158.073H354.796C354.796 157.649 354.891 157.277 355.082 156.959C355.276 156.638 355.542 156.388 355.878 156.209C356.215 156.027 356.599 155.936 357.033 155.936C357.445 155.936 357.815 156.03 358.142 156.218C358.47 156.403 358.727 156.657 358.915 156.982C359.106 157.306 359.202 157.676 359.202 158.091C359.202 158.391 359.162 158.646 359.084 158.855C359.005 159.064 358.886 159.258 358.729 159.437C358.571 159.616 358.374 159.81 358.138 160.019L355.937 161.983L355.833 161.71H359.202V162.615H354.773ZM362.575 162.756C362.129 162.756 361.735 162.659 361.392 162.465C361.05 162.268 360.78 161.998 360.583 161.656C360.389 161.313 360.292 160.919 360.292 160.474V158.218C360.292 157.773 360.389 157.379 360.583 157.036C360.78 156.694 361.05 156.425 361.392 156.231C361.735 156.034 362.129 155.936 362.575 155.936C363.02 155.936 363.414 156.034 363.757 156.231C364.099 156.425 364.368 156.694 364.562 157.036C364.759 157.379 364.857 157.773 364.857 158.218V160.474C364.857 160.919 364.759 161.313 364.562 161.656C364.368 161.998 364.099 162.268 363.757 162.465C363.414 162.659 363.02 162.756 362.575 162.756ZM362.575 161.847C362.817 161.847 363.037 161.789 363.234 161.674C363.434 161.556 363.593 161.398 363.711 161.201C363.83 161.001 363.889 160.778 363.889 160.533V158.15C363.889 157.908 363.83 157.688 363.711 157.491C363.593 157.291 363.434 157.133 363.234 157.018C363.037 156.9 362.817 156.841 362.575 156.841C362.332 156.841 362.111 156.9 361.911 157.018C361.714 157.133 361.556 157.291 361.438 157.491C361.32 157.688 361.261 157.908 361.261 158.15V160.533C361.261 160.778 361.32 161.001 361.438 161.201C361.556 161.398 361.714 161.556 361.911 161.674C362.111 161.789 362.332 161.847 362.575 161.847ZM365.945 162.615L365.949 161.769L368.8 159.214C369.03 159.011 369.187 158.817 369.268 158.632C369.353 158.447 369.396 158.262 369.396 158.077C369.396 157.844 369.344 157.635 369.241 157.45C369.138 157.262 368.996 157.114 368.814 157.004C368.632 156.895 368.423 156.841 368.186 156.841C367.944 156.841 367.727 156.898 367.536 157.013C367.348 157.126 367.201 157.276 367.095 157.464C366.989 157.652 366.937 157.855 366.94 158.073H365.967C365.967 157.649 366.063 157.277 366.254 156.959C366.448 156.638 366.713 156.388 367.05 156.209C367.386 156.027 367.771 155.936 368.204 155.936C368.617 155.936 368.986 156.03 369.314 156.218C369.641 156.403 369.899 156.657 370.087 156.982C370.278 157.306 370.373 157.676 370.373 158.091C370.373 158.391 370.334 158.646 370.255 158.855C370.176 159.064 370.058 159.258 369.9 159.437C369.743 159.616 369.546 159.81 369.309 160.019L367.109 161.983L367.004 161.71H370.373V162.615H365.945ZM373.405 162.756C373.069 162.756 372.755 162.688 372.464 162.551C372.176 162.412 371.929 162.221 371.723 161.979C371.517 161.733 371.37 161.451 371.282 161.133L372.196 160.887C372.247 161.081 372.335 161.25 372.459 161.392C372.587 161.534 372.735 161.645 372.905 161.724C373.075 161.8 373.251 161.838 373.432 161.838C373.672 161.838 373.889 161.78 374.083 161.665C374.28 161.55 374.434 161.395 374.546 161.201C374.662 161.007 374.719 160.793 374.719 160.56C374.719 160.32 374.66 160.104 374.542 159.91C374.427 159.716 374.271 159.563 374.073 159.451C373.879 159.335 373.666 159.278 373.432 159.278C373.166 159.278 372.94 159.331 372.755 159.437C372.57 159.543 372.426 159.666 372.323 159.805L371.495 159.514L371.696 156.072H375.228V156.968H372.182L372.569 156.609L372.409 159.187L372.223 158.946C372.396 158.773 372.602 158.641 372.841 158.55C373.081 158.459 373.319 158.414 373.555 158.414C373.961 158.414 374.324 158.508 374.642 158.696C374.963 158.884 375.216 159.14 375.401 159.464C375.586 159.785 375.678 160.151 375.678 160.56C375.678 160.966 375.574 161.336 375.365 161.669C375.156 162 374.878 162.263 374.533 162.46C374.187 162.658 373.811 162.756 373.405 162.756Z" fill="white"/>
</g>
<defs>
<filter id="filter0_d_309_7152" x="306.783" y="156.45" width="75.7916" height="75.7916" filterUnits="userSpaceOnUse" color-interpolation-filters="sRGB">
<feFlood flood-opacity="0" result="BackgroundImageFix"/>
<feColorMatrix in="SourceAlpha" type="matrix" values="0 0 0 0 0 0 0 0 0 0 0 0 0 0 0 0 0 0 127 0" result="hardAlpha"/>
<feOffset dy="5.05278"/>
<feGaussianBlur stdDeviation="15.1584"/>
<feColorMatrix type="matrix" values="0 0 0 0 0 0 0 0 0 0 0 0 0 0 0 0 0 0 0.15 0"/>
<feBlend mode="normal" in2="BackgroundImageFix" result="effect1_dropShadow_309_7152"/>
<feBlend mode="normal" in="SourceGraphic" in2="effect1_dropShadow_309_7152" result="shape"/>
</filter>
<linearGradient id="paint0_linear_309_7152" x1="165.305" y1="107.651" x2="165.305" y2="330.39" gradientUnits="userSpaceOnUse">
<stop stop-color="#7C5832"/>
<stop offset="0.926382" stop-color="#CA9415" stop-opacity="0.01"/>
<stop offset="1" stop-color="#24BF4A" stop-opacity="0.01"/>
<stop offset="1" stop-color="white"/>
</linearGradient>
<clipPath id="clip0_309_7152">
<rect width="23.2026" height="23.2026" fill="white" transform="translate(39.5273 38.6152)"/>
</clipPath>
<clipPath id="clip1_309_7152">
<rect width="93.7178" height="43.2544" fill="white" transform="translate(297.314 134.206)"/>
</clipPath>
</defs>
</svg>
